<svg width="515" height="552" viewBox="0 0 515 552" fill="none" xmlns="http://www.w3.org/2000/svg">
    <path
        d="M363.485 175.547C363.485 175.547 369.283 174.76 373.006 174.912C376.509 175.055 378.657 174.832 381.892 176.182C384.367 177.214 386.175 177.722 387.605 179.99C388.441 181.316 388.875 183.799 388.875 183.799L373.006 194.589L363.485 175.547Z"
        fill="#221E1F" />
    <path
        d="M267.008 245.396C269.347 241.067 275.259 235.875 275.259 235.875L288.589 262.534L267.008 263.804C267.008 263.804 263.876 258.289 263.834 254.917C263.785 250.998 265.144 248.844 267.008 245.396Z"
        fill="#221E1F" />
    <rect x="262.874" y="213.614" width="108.416" height="315.148" transform="rotate(-27.0217 262.874 213.614)"
        fill="#FAB58B" stroke="black" stroke-width="0.3" />
    <path
        d="M359.884 164.504C359.883 165.587 359.412 167.489 358.465 170.006C357.519 172.52 356.103 175.631 354.227 179.115C350.474 186.085 344.885 194.547 337.538 202.732C322.842 219.104 301.13 234.35 273.034 234.35C243.779 234.35 226.313 231.043 216.14 219.385C211.053 213.556 207.777 205.624 205.775 194.935C203.772 184.246 203.045 170.812 203.045 153.987C203.045 138.738 201.741 123.524 200.506 109.118C200.377 107.621 200.25 106.132 200.125 104.653C198.793 88.9398 197.721 74.3142 198.75 61.7941C199.778 49.2736 202.906 38.8838 209.953 31.6227C216.995 24.3667 227.977 20.2092 244.771 20.2066C315.133 34.7943 356.077 100.45 359.884 164.504Z"
        fill="#FAB58B" stroke="black" stroke-width="0.3" />
    <path d="M125.242 229.131L275.013 5.20808L334.653 45.0985L259.768 157.06L184.883 269.021L125.242 229.131Z"
        fill="#603E1F" stroke="black" stroke-width="0.3" />
    <mask id="path-6-inside-1_135_163" fill="white">
        <path
            d="M210.034 286C210.034 286 81.2952 472.276 20.8137 521.413C-32.5408 471.862 125.224 228.721 125.224 228.721" />
    </mask>
    <path d="M210.034 286C210.034 286 81.2952 472.276 20.8137 521.413C-32.5408 471.862 125.224 228.721 125.224 228.721"
        fill="#A3B0BC" />
    <path
        d="M125.14 228.846L209.95 286.124L210.118 285.876L125.308 228.597L125.14 228.846ZM20.8137 521.413L20.6095 521.633L20.8005 521.81L21.0028 521.646L20.8137 521.413ZM210.034 286C209.787 285.829 209.787 285.83 209.786 285.832C209.785 285.833 209.783 285.835 209.782 285.838C209.778 285.844 209.772 285.852 209.764 285.863C209.748 285.886 209.725 285.92 209.694 285.964C209.632 286.054 209.539 286.188 209.416 286.365C209.171 286.719 208.806 287.245 208.327 287.933C207.37 289.309 205.958 291.333 204.139 293.928C200.501 299.117 195.236 306.584 188.73 315.699C175.716 333.929 157.735 358.747 137.865 385.1C98.1142 437.818 50.8314 496.639 20.6245 521.18L21.0028 521.646C51.2775 497.05 98.6049 438.164 138.344 385.461C158.219 359.103 176.203 334.28 189.218 316.048C195.726 306.931 200.991 299.462 204.63 294.272C206.449 291.677 207.862 289.652 208.82 288.275C209.299 287.587 209.664 287.061 209.91 286.707C210.032 286.53 210.125 286.396 210.187 286.306C210.218 286.261 210.242 286.227 210.257 286.205C210.265 286.193 210.271 286.185 210.275 286.179C210.277 286.176 210.279 286.174 210.279 286.173C210.28 286.171 210.281 286.171 210.034 286ZM21.0178 521.193C14.4245 515.07 11.0701 505.937 10.2807 494.589C9.49144 483.242 11.2702 469.713 14.9102 454.847C22.19 425.116 36.8974 390.101 53.2802 356.617C69.6614 323.138 87.7103 291.204 101.665 267.639C108.642 255.857 114.595 246.168 118.803 239.424C120.908 236.053 122.576 233.417 123.718 231.625C124.289 230.729 124.728 230.044 125.025 229.583C125.173 229.352 125.286 229.177 125.361 229.06C125.399 229.002 125.428 228.958 125.447 228.929C125.456 228.914 125.463 228.903 125.468 228.895C125.47 228.892 125.472 228.889 125.473 228.887C125.475 228.885 125.475 228.885 125.224 228.721C124.972 228.558 124.971 228.559 124.97 228.561C124.969 228.563 124.967 228.565 124.965 228.569C124.96 228.577 124.953 228.588 124.943 228.602C124.924 228.632 124.895 228.676 124.857 228.735C124.782 228.852 124.669 229.027 124.52 229.258C124.223 229.72 123.783 230.406 123.212 231.303C122.069 233.096 120.4 235.733 118.294 239.107C114.084 245.853 108.128 255.547 101.148 267.333C87.1893 290.906 69.1318 322.855 52.7412 356.354C36.3523 389.85 21.6225 424.91 14.3274 454.704C10.68 469.601 8.88686 483.197 9.68219 494.631C10.4775 506.065 13.8642 515.368 20.6095 521.633L21.0178 521.193Z"
        fill="black" mask="url(#path-6-inside-1_135_163)" />
    <mask id="path-8-inside-2_135_163" fill="white">
        <path
            d="M210.537 285.989C210.537 285.989 82.3809 472.136 21.1111 521.429C6.35057 496.964 49.2888 437.978 90.319 377.702C130.72 318.349 171.034 259.499 171.034 259.499" />
    </mask>
    <path
        d="M210.537 285.989C210.537 285.989 82.3809 472.136 21.1111 521.429C6.35057 496.964 49.2888 437.978 90.319 377.702C130.72 318.349 171.034 259.499 171.034 259.499"
        fill="#CED3D8" />
    <path
        d="M170.951 259.624L210.453 286.114L210.62 285.864L171.118 259.375L170.951 259.624ZM21.1111 521.429L20.8543 521.584L21.0317 521.878L21.2992 521.663L21.1111 521.429ZM90.319 377.702L90.567 377.871L90.319 377.702ZM210.537 285.989C210.289 285.819 210.289 285.82 210.288 285.821C210.287 285.822 210.286 285.825 210.284 285.827C210.28 285.833 210.274 285.841 210.266 285.853C210.251 285.875 210.227 285.909 210.196 285.954C210.135 286.043 210.042 286.177 209.92 286.354C209.676 286.708 209.313 287.233 208.836 287.921C207.882 289.296 206.476 291.319 204.664 293.912C201.041 299.098 195.796 306.561 189.311 315.671C176.34 333.891 158.407 358.697 138.56 385.044C98.857 437.75 51.5233 496.577 20.9231 521.196L21.2992 521.663C51.9688 496.989 99.3478 438.096 139.04 385.405C158.891 359.053 176.826 334.242 189.799 316.019C196.286 306.907 201.532 299.443 205.156 294.256C206.968 291.662 208.375 289.638 209.329 288.263C209.806 287.575 210.169 287.049 210.414 286.695C210.536 286.518 210.629 286.384 210.69 286.294C210.721 286.25 210.745 286.216 210.76 286.193C210.768 286.182 210.774 286.173 210.778 286.168C210.78 286.165 210.781 286.163 210.782 286.161C210.783 286.16 210.784 286.159 210.537 285.989ZM21.368 521.274C17.7402 515.261 17.6348 507.086 20.2181 497.203C22.7996 487.327 28.0513 475.802 35.056 463.14C49.0656 437.817 70.0461 408.017 90.567 377.871L90.071 377.533C69.5616 407.663 48.558 437.495 34.531 462.85C27.5175 475.527 22.2378 487.103 19.6376 497.051C17.0392 506.992 17.1018 515.365 20.8543 521.584L21.368 521.274ZM90.567 377.871C110.768 348.194 130.946 318.644 146.075 296.512C153.639 285.447 159.941 276.236 164.352 269.791C166.557 266.569 168.29 264.038 169.471 262.313C170.061 261.451 170.514 260.79 170.819 260.344C170.972 260.121 171.087 259.953 171.165 259.839C171.204 259.783 171.233 259.74 171.252 259.712C171.262 259.697 171.27 259.687 171.274 259.68C171.277 259.676 171.279 259.673 171.28 259.671C171.281 259.671 171.281 259.67 171.281 259.669C171.282 259.669 171.282 259.669 171.034 259.499C170.787 259.33 170.787 259.33 170.786 259.33C170.786 259.331 170.786 259.331 170.785 259.332C170.784 259.334 170.782 259.337 170.78 259.34C170.775 259.348 170.767 259.358 170.757 259.373C170.738 259.401 170.709 259.444 170.67 259.5C170.592 259.613 170.477 259.782 170.324 260.005C170.019 260.451 169.566 261.112 168.976 261.974C167.794 263.699 166.062 266.23 163.856 269.452C159.446 275.897 153.144 285.108 145.58 296.174C130.451 318.305 110.272 347.856 90.071 377.533L90.567 377.871Z"
        fill="black" mask="url(#path-8-inside-2_135_163)" />
    <path
        d="M172.858 215.595C172.858 215.595 232.217 231.445 236.868 217.526C245.673 191.134 204.192 190.087 204.192 190.087C204.192 190.087 184.665 168.837 180.398 158.787C174.029 143.764 186.379 117.266 193.01 104.88C194.618 101.865 189.648 103.164 186.922 101.811C174.786 95.8062 141.578 134.891 138.534 144C133.903 157.906 129.203 162.22 135.931 178.11C144.432 198.201 172.874 215.599 172.874 215.599L172.858 215.595Z"
        fill="#FAB58B" stroke="black" stroke-width="0.3" stroke-miterlimit="10" />
    <path
        d="M189.062 190.413C189.062 190.413 248.899 210.578 252.575 196.462C259.552 169.693 218.406 165.995 218.406 165.995C218.406 165.995 197.668 142.758 192.791 132.085C185.502 116.126 195.987 89.472 201.731 77.0617C203.126 74.0511 198.297 75.0767 195.498 73.5026C183.093 66.5149 149.956 103.256 147.534 112.5C143.858 126.617 142.317 132.404 150.017 149.274C159.771 170.62 189.062 190.413 189.062 190.413Z"
        fill="#FAB58B" stroke="black" stroke-width="0.3" stroke-miterlimit="10" />
    <path
        d="M210.15 167.458C210.15 167.458 271.689 189.5 276.19 171.935C284.73 138.626 241.936 135.999 241.936 135.999C241.936 135.999 221.369 108.34 216.776 95.4187C209.912 76.0963 222.111 42.7655 228.689 27.2057C230.287 23.4311 225.197 24.921 222.347 23.1127C209.721 15.0845 165.496 71.9972 162.534 83.4999C158.034 101.065 164.054 98.1763 171.303 118.6C180.489 144.443 210.15 167.458 210.15 167.458Z"
        fill="#FAB58B" stroke="black" stroke-width="0.3" stroke-miterlimit="10" />
    <path
        d="M235.127 139.462C235.127 139.462 288.703 158.588 292.586 143.445C299.954 114.731 256.33 105.33 256.33 105.33C256.33 105.33 240.935 85.461 236.915 74.3071C234.034 57.5 256.854 36.5421 262.549 23.1333C262.549 23.1333 251.076 15.6108 238.621 12.1206C218.881 12.7294 196.084 64.3985 193.529 74.3147C189.646 89.4574 193.53 89 200.532 101.001C208.57 123.309 235.127 139.462 235.127 139.462Z"
        fill="#FAB58B" stroke="black" stroke-width="0.3" stroke-miterlimit="10" />
    <path
        d="M396.023 493.206C393.285 487.961 392.151 483.296 392.341 479.118C392.531 474.941 394.043 471.239 396.617 467.92C401.771 461.274 411.177 456.166 422.72 451.89C434.258 447.616 447.903 444.183 461.509 440.871C462.731 440.574 463.953 440.277 465.172 439.981C477.53 436.982 489.696 434.03 500.037 430.583C501.861 429.975 503.53 430.831 505.014 432.223C506.268 433.398 507.36 434.926 508.27 436.2C508.437 436.434 508.598 436.659 508.753 436.872C509.932 438.494 510.562 441.002 510.896 443.125C511.062 444.182 511.154 445.137 511.204 445.828C511.229 446.173 511.244 446.452 511.252 446.645C511.256 446.729 511.258 446.797 511.26 446.846L400.622 500.647L400.56 500.556C400.473 500.428 400.347 500.241 400.19 500.007C399.877 499.539 399.443 498.883 398.959 498.131C397.991 496.626 396.823 494.739 396.023 493.206Z"
        fill="#ECFA4E" stroke="black" stroke-width="0.3" />
    <path
        d="M475.192 411.64L475.204 411.79L475.218 411.789L475.232 411.785L475.192 411.64ZM475.192 411.64L475.232 411.785L475.232 411.785L475.232 411.785L475.235 411.784L475.243 411.782L475.279 411.772C475.31 411.764 475.357 411.752 475.417 411.736C475.537 411.705 475.712 411.659 475.93 411.605C476.367 411.497 476.979 411.351 477.677 411.203C479.075 410.908 480.81 410.605 482.179 410.571C483.791 410.531 486.318 410.834 488.451 411.149C489.516 411.306 490.479 411.466 491.177 411.586C491.525 411.647 491.807 411.697 492.002 411.732C492.04 411.739 492.076 411.746 492.107 411.751C492.155 411.76 492.195 411.768 492.226 411.773L492.257 411.779L492.27 411.793C492.301 411.825 492.347 411.873 492.405 411.936C492.523 412.061 492.693 412.244 492.905 412.476C493.328 412.941 493.915 413.602 494.569 414.389C495.881 415.963 497.46 418.033 498.547 420.029C499.043 420.939 499.764 421.908 500.509 422.908L500.626 423.065C501.416 424.126 502.224 425.224 502.833 426.348C503.443 427.472 503.847 428.609 503.842 429.745C503.837 430.876 503.427 432.021 502.377 433.167C496.659 439.404 491.069 440.132 482.776 441.211C481.008 441.441 479.116 441.687 477.075 442.006C474.74 442.371 472.852 443.578 471.139 445.233C469.568 446.751 468.136 448.655 466.639 450.646C466.506 450.823 466.372 451 466.238 451.178C462.941 455.552 459.23 460.235 452.93 462.326C438.454 467.129 430.686 474.478 424.057 480.749C423.865 480.931 423.674 481.112 423.483 481.292C416.728 487.675 411.026 492.786 400.292 492.785C397.709 492.785 394.698 491.433 392.02 489.485C389.344 487.539 387.027 485.017 385.828 482.711C384.713 480.567 383.922 477.567 383.409 475.091C383.153 473.856 382.967 472.755 382.845 471.963C382.784 471.567 382.739 471.248 382.71 471.029C382.7 470.961 382.693 470.903 382.686 470.855C382.734 470.854 382.791 470.852 382.858 470.85C383.08 470.842 383.41 470.828 383.837 470.802C384.692 470.749 385.939 470.646 387.513 470.445C390.66 470.044 395.113 469.252 400.336 467.692C400.843 467.541 401.376 467.382 401.929 467.218C405.721 466.092 410.48 464.679 414.31 463.245C423.52 459.798 432.304 454.038 439.102 448.608C444.447 444.339 447.47 441.827 451.825 436.536C454.237 433.606 456.783 429.476 458.724 426.084C459.695 424.387 460.516 422.872 461.094 421.782C461.383 421.237 461.612 420.798 461.768 420.495C461.846 420.343 461.906 420.226 461.946 420.146L461.992 420.056L462.001 420.039C462.522 419.389 462.959 418.772 463.365 418.189C463.43 418.096 463.495 418.003 463.558 417.911C463.895 417.426 464.213 416.967 464.55 416.527C465.346 415.484 466.236 414.559 467.652 413.724C468.95 412.958 470.832 412.473 472.403 412.18C473.186 412.034 473.887 411.936 474.392 411.875C474.644 411.845 474.848 411.823 474.988 411.81C475.058 411.803 475.112 411.798 475.149 411.795L475.19 411.791L475.201 411.79L475.203 411.79L475.204 411.79L475.204 411.79L475.192 411.64Z"
        fill="#1FC41C" stroke="black" stroke-width="0.3" />
    <path
        d="M383.002 471.021L382.956 471.025L382.91 470.991C382.849 470.946 382.76 470.88 382.646 470.793C382.418 470.62 382.087 470.367 381.682 470.046C380.87 469.403 379.758 468.49 378.552 467.406C376.136 465.234 373.36 462.39 371.876 459.676C370.687 457.5 369.8 454.442 369.209 451.918C368.914 450.658 368.694 449.535 368.548 448.727C368.474 448.322 368.42 447.997 368.383 447.773C368.372 447.705 368.363 447.647 368.355 447.599L381.008 447.599L381.021 447.599L381.033 447.597L400.075 444.437L400.104 444.432L400.129 444.417L424.75 429.414L424.773 429.4L424.79 429.379L437.491 413.275L437.498 413.266L437.503 413.257L437.373 413.182C437.503 413.257 437.503 413.257 437.503 413.257L437.503 413.257L437.504 413.255L437.509 413.247L437.526 413.217L437.594 413.101C437.654 412.999 437.741 412.848 437.854 412.656C438.079 412.271 438.402 411.719 438.797 411.048C439.587 409.706 440.661 407.89 441.801 405.993C444.084 402.192 446.619 398.083 447.655 396.792C448.415 395.844 448.915 395 449.361 394.246C449.532 393.958 449.695 393.683 449.861 393.421C450.464 392.471 451.128 391.658 452.425 390.893C455.067 389.334 457.821 387.873 461.012 387.31C462.312 387.08 463.32 387.117 464.353 387.194C464.506 387.205 464.659 387.218 464.814 387.23C465.709 387.301 466.659 387.377 467.847 387.312C471.879 387.09 474.322 387.089 478.071 388.521C480.484 389.443 482.576 391.345 484.359 393.694C486.141 396.043 487.606 398.829 488.768 401.504C489.929 404.177 490.785 406.735 491.351 408.625C491.634 409.57 491.844 410.347 491.984 410.888C492.054 411.158 492.106 411.37 492.14 411.513C492.141 411.517 492.142 411.521 492.143 411.525C492.076 411.517 491.994 411.508 491.898 411.497C491.603 411.465 491.175 411.42 490.643 411.369C489.58 411.269 488.101 411.149 486.44 411.069C483.121 410.909 479.057 410.908 476.117 411.552C475.828 411.616 475.546 411.677 475.271 411.737C471.345 412.589 468.642 413.175 465.335 415.84C463.608 417.232 462.598 418.641 461.726 420.163C461.401 420.731 461.093 421.317 460.776 421.922C460.67 422.124 460.563 422.329 460.453 422.536C460.015 423.363 459.54 424.23 458.955 425.151C457.502 427.44 456.57 429.49 455.679 431.448C455.489 431.866 455.3 432.28 455.109 432.691C454.024 435.027 452.846 437.283 450.717 439.748C448.558 442.247 446.526 443.83 444.372 445.292C443.688 445.756 442.99 446.209 442.271 446.675C440.728 447.676 439.087 448.74 437.282 450.113C435.613 451.382 434.241 452.53 432.949 453.61C430.405 455.739 428.173 457.606 424.598 459.623C420.175 462.119 417.174 463.143 412.817 464.63C412.174 464.85 411.503 465.079 410.793 465.324C405.679 467.092 402.772 468.021 397.481 469.128C394.675 469.715 391.031 470.191 388.085 470.52C386.613 470.684 385.317 470.812 384.388 470.898C383.924 470.941 383.552 470.974 383.296 470.996C383.168 471.007 383.069 471.016 383.002 471.021Z"
        fill="#2374EE" stroke="black" stroke-width="0.3" />
    <path
        d="M320.342 360.75C320.402 360.71 320.489 360.654 320.6 360.583C320.833 360.434 321.171 360.22 321.595 359.96C322.443 359.439 323.632 358.733 324.997 357.99C327.723 356.505 331.168 354.865 334.005 354.272C339.296 353.165 342.203 352.235 347.317 350.467C348.72 349.982 350.715 349.775 352.98 349.689C354.793 349.62 356.792 349.628 358.817 349.636C359.326 349.638 359.838 349.64 360.348 349.641C362.89 349.645 365.411 349.619 367.614 349.413C369.822 349.207 371.688 348.822 372.931 348.121C374.279 347.36 374.894 346.832 375.156 346.421C375.284 346.221 375.328 346.049 375.332 345.889C375.337 345.724 375.3 345.564 375.255 345.378L375.247 345.347C375.158 344.984 375.053 344.558 375.293 343.992C375.535 343.422 376.118 342.727 377.357 341.784C379.982 339.789 382.219 337.091 384.348 334.255C384.985 333.405 385.614 332.542 386.24 331.682C387.698 329.68 389.144 327.694 390.665 325.933C392.456 323.86 394.092 322.455 395.636 321.128C395.947 320.861 396.253 320.598 396.557 320.333C398.37 318.749 400.081 317.099 401.827 314.349C403.037 312.442 405.414 311.576 407.858 310.843C408.191 310.744 408.524 310.646 408.857 310.549C409.759 310.287 410.655 310.026 411.503 309.722C412.664 309.306 413.719 308.814 414.554 308.141C415.733 307.191 416.498 306.355 417.178 305.612C417.507 305.252 417.816 304.914 418.143 304.596C419.141 303.622 420.257 302.887 422.484 302.399C425.36 301.768 426.587 300.374 427.106 299.161C427.367 298.55 427.451 297.977 427.471 297.557C427.48 297.347 427.473 297.176 427.464 297.058C427.46 296.999 427.455 296.954 427.451 296.923C427.449 296.908 427.447 296.897 427.446 296.889L427.445 296.882L427.445 296.88L320.342 360.75ZM320.342 360.75L320.282 360.69C320.187 360.596 320.046 360.456 319.867 360.275C319.508 359.915 318.992 359.393 318.363 358.746C317.105 357.454 315.398 355.665 313.599 353.679C311.801 351.693 309.911 349.512 308.289 347.435C306.665 345.356 305.316 343.389 304.589 341.831C304.074 340.725 303.851 339.309 303.812 337.797C303.772 336.288 303.917 334.693 304.127 333.237C304.338 331.781 304.614 330.465 304.838 329.514C304.95 329.038 305.049 328.654 305.12 328.388C305.155 328.256 305.183 328.153 305.203 328.083L305.21 328.059L305.294 328.036C305.403 328.007 305.564 327.965 305.769 327.912C306.178 327.807 306.767 327.658 307.48 327.486C308.906 327.143 310.831 326.707 312.827 326.337C314.824 325.967 316.887 325.665 318.59 325.586C319.443 325.546 320.2 325.563 320.811 325.654C321.428 325.745 321.873 325.909 322.125 326.142C322.45 326.443 322.957 326.575 323.56 326.598C324.167 326.622 324.898 326.537 325.701 326.377C327.307 326.058 329.228 325.433 331.071 324.744C332.916 324.055 334.688 323.299 335.998 322.717C336.654 322.425 337.194 322.177 337.57 322.001C337.759 321.913 337.906 321.844 338.006 321.796L338.121 321.741L338.15 321.727L338.15 321.727L361.241 314.573L361.285 314.559L361.314 314.522L374.015 298.418L374.022 298.41L374.027 298.4L373.897 298.325C374.027 298.4 374.027 298.4 374.027 298.4L374.027 298.4L374.029 298.398L374.033 298.39L374.05 298.361L374.118 298.244C374.178 298.142 374.266 297.991 374.378 297.799C374.603 297.415 374.926 296.862 375.321 296.191C376.111 294.85 377.185 293.034 378.325 291.136C380.608 287.336 383.143 283.226 384.179 281.935C384.939 280.988 385.439 280.143 385.886 279.389C386.056 279.101 386.219 278.826 386.385 278.564C386.988 277.615 387.653 276.801 388.949 276.036C391.592 274.477 394.345 273.016 397.536 272.453C397.891 272.39 398.415 272.167 399.051 271.838C399.694 271.506 400.467 271.059 401.326 270.537C402.806 269.638 404.549 268.511 406.328 267.361C406.615 267.176 406.902 266.99 407.19 266.805C409.264 265.466 411.34 264.138 413.068 263.137C413.933 262.636 414.708 262.218 415.351 261.921C416.001 261.621 416.497 261.454 416.811 261.437C417.757 261.385 418.497 261.837 419.122 262.644C419.752 263.456 420.254 264.614 420.715 265.934C420.994 266.734 421.255 267.584 421.519 268.446C421.692 269.008 421.866 269.576 422.048 270.139C422.507 271.556 423.012 272.931 423.655 274.056C426.24 278.58 427.19 284.271 427.491 288.843C427.641 291.127 427.629 293.127 427.58 294.556C427.555 295.271 427.521 295.842 427.493 296.235C427.479 296.431 427.466 296.582 427.458 296.685C427.453 296.736 427.45 296.775 427.447 296.801L427.444 296.83L427.444 296.837L427.443 296.839L427.443 296.839L427.593 296.854L427.443 296.839L427.441 296.86L427.445 296.88L320.342 360.75Z"
        fill="#2374EE" stroke="black" stroke-width="0.3" />
    <path
        d="M400.263 443.949L400.251 443.955L400.236 443.959L400.161 443.98C400.096 443.999 399.999 444.026 399.873 444.061C399.621 444.131 399.255 444.231 398.798 444.354C397.883 444.599 396.602 444.933 395.141 445.288C392.217 445.999 388.575 446.791 385.686 447.123C384.571 447.251 383.517 447.389 382.505 447.522C377.466 448.182 373.508 448.7 368.61 447.129C366.053 446.308 363.895 444.41 362.096 442.005C360.298 439.601 358.866 436.702 357.755 433.9C356.645 431.1 355.859 428.403 355.35 426.405C355.095 425.406 354.91 424.583 354.789 424.009C354.729 423.726 354.684 423.504 354.655 423.351C354.784 423.386 354.966 423.432 355.205 423.486C355.737 423.607 356.552 423.768 357.684 423.928C359.948 424.249 363.481 424.569 368.564 424.569L368.586 424.569L368.607 424.562C369.583 424.271 371.138 424.106 373.007 424C374.553 423.913 376.302 423.865 378.095 423.817C378.464 423.807 378.836 423.797 379.208 423.786C381.383 423.725 383.575 423.649 385.497 423.487C387.416 423.324 389.083 423.073 390.199 422.655C394.816 420.927 397.736 418.78 400.351 416.387C401.279 415.538 402.164 414.662 403.072 413.765C404.728 412.127 406.456 410.418 408.648 408.667C413.187 405.042 416.96 400.393 420.645 395.851C421.31 395.032 421.972 394.217 422.634 393.412C425.045 390.483 426.908 387.475 428.427 384.879C428.764 384.303 429.083 383.748 429.387 383.22C430.461 381.356 431.348 379.816 432.154 378.811C432.563 378.301 432.99 377.745 433.435 377.165C434.136 376.252 434.881 375.281 435.667 374.348C436.949 372.825 438.319 371.429 439.733 370.595C440.372 370.217 441.083 369.764 441.832 369.285L441.918 369.23C442.7 368.731 443.524 368.206 444.358 367.71C446.031 366.716 447.731 365.848 449.207 365.534C450.556 365.246 452.614 364.918 454.339 364.662C455.201 364.534 455.978 364.424 456.539 364.346C456.82 364.307 457.047 364.276 457.204 364.254L457.384 364.23L457.431 364.224L457.443 364.222L457.446 364.222L457.447 364.222L457.447 364.222L457.447 364.222L457.456 364.22L457.427 364.073L457.456 364.22L457.456 364.22L457.457 364.22L457.46 364.219L457.472 364.217L457.518 364.208C457.56 364.201 457.621 364.19 457.7 364.176C457.858 364.148 458.088 364.11 458.375 364.067C458.948 363.982 459.747 363.88 460.647 363.812C462.455 363.675 464.651 363.678 466.268 364.215C468.993 365.12 470.652 366.686 471.979 368.664C472.644 369.655 473.226 370.751 473.817 371.922C473.971 372.227 474.126 372.538 474.283 372.853C474.727 373.744 475.189 374.671 475.705 375.617C477.064 378.114 478.171 381.59 478.94 384.451C479.323 385.88 479.621 387.152 479.824 388.067C479.925 388.525 480.002 388.893 480.054 389.146C480.066 389.203 480.076 389.254 480.085 389.298C480.017 389.279 479.934 389.256 479.838 389.23C479.527 389.145 479.074 389.025 478.509 388.885C477.379 388.605 475.801 388.244 474.007 387.925C470.423 387.286 465.958 386.805 462.48 387.457C462.207 387.508 461.941 387.557 461.68 387.605C457.698 388.343 454.94 388.854 451.617 391.532C449.886 392.927 448.288 395.266 447.127 397.243C446.545 398.234 446.07 399.138 445.741 399.794C445.576 400.123 445.448 400.389 445.361 400.574C445.342 400.613 445.326 400.648 445.311 400.679C445.291 400.723 445.274 400.759 445.261 400.787L445.236 400.843L445.23 400.856L436.984 415.459L436.983 415.461L436.97 415.48L436.921 415.555C436.877 415.62 436.812 415.717 436.728 415.842C436.56 416.092 436.314 416.455 436.003 416.904C435.381 417.801 434.5 419.045 433.463 420.429C431.389 423.199 428.7 426.52 426.226 428.753C422.283 432.31 419.345 433.975 415.207 436.319C414.486 436.727 413.728 437.157 412.922 437.62C410.525 438.999 407.355 440.584 404.783 441.825C403.497 442.445 402.361 442.979 401.547 443.357C401.14 443.547 400.813 443.697 400.588 443.801C400.476 443.852 400.389 443.892 400.33 443.919L400.263 443.949Z"
        fill="#FFA723" stroke="black" stroke-width="0.3" />
    <path
        d="M390.881 243.738C390.967 243.861 390.967 243.861 390.967 243.861L390.967 243.861L390.969 243.859L390.977 243.854L391.006 243.834L391.121 243.754C391.222 243.685 391.371 243.582 391.562 243.453C391.944 243.193 392.493 242.824 393.162 242.383C394.5 241.503 396.318 240.341 398.238 239.214C400.16 238.085 402.179 236.994 403.922 236.253C404.793 235.883 405.591 235.602 406.27 235.448C406.954 235.292 407.495 235.27 407.867 235.393C409.189 235.833 410.277 237.141 411.207 238.988C412.134 240.829 412.888 243.172 413.558 245.627C413.949 247.062 414.311 248.526 414.662 249.949C414.912 250.965 415.157 251.96 415.405 252.907C415.996 255.17 416.597 257.157 417.304 258.454C418.632 260.894 417.743 263.528 416.483 265.585C415.855 266.61 415.142 267.48 414.585 268.095C414.307 268.402 414.068 268.645 413.899 268.81C413.815 268.893 413.748 268.957 413.702 269C413.691 269.011 413.68 269.02 413.671 269.028C413.663 269.036 413.656 269.043 413.65 269.048L413.648 269.05L413.643 269.052L413.572 269.087C413.508 269.117 413.415 269.162 413.293 269.22C413.049 269.335 412.693 269.502 412.245 269.705C411.347 270.113 410.078 270.67 408.594 271.267C405.625 272.462 401.801 273.815 398.366 274.459C397.224 274.672 396.074 275.33 394.942 276.226C393.809 277.123 392.682 278.267 391.59 279.469C390.925 280.199 390.27 280.955 389.632 281.691C389.222 282.163 388.819 282.628 388.427 283.071C387.418 284.21 386.47 285.217 385.604 285.915C383.877 287.307 382.121 289.616 380.801 291.566C380.14 292.543 379.587 293.433 379.198 294.08C379.004 294.403 378.851 294.665 378.746 294.847C378.694 294.937 378.653 295.008 378.626 295.056L378.596 295.111L378.592 295.117L369.081 306.246L369.076 306.252L369.072 306.258L369.195 306.343L369.071 306.258L369.071 306.258L369.071 306.259L369.068 306.263L369.059 306.277L369.02 306.332C368.985 306.381 368.934 306.454 368.867 306.548C368.734 306.737 368.537 307.011 368.285 307.354C367.782 308.04 367.059 309.002 366.181 310.104C364.424 312.309 362.05 315.07 359.573 317.304C357.248 319.402 355.77 320.721 354.114 321.69C352.462 322.657 350.626 323.28 347.581 323.97C344.781 324.604 341.133 325.309 338.185 325.855C336.711 326.128 335.412 326.362 334.481 326.527C334.016 326.61 333.643 326.675 333.386 326.72L333.091 326.772L333.015 326.785L332.996 326.788L332.991 326.789L332.989 326.789L332.989 326.789L333.015 326.937L332.989 326.789L332.982 326.791L332.996 326.852C332.982 326.791 332.982 326.791 332.982 326.791L332.982 326.791L332.98 326.791L332.975 326.792L332.953 326.797L332.868 326.816C332.793 326.832 332.682 326.856 332.539 326.887C332.252 326.949 331.836 327.039 331.319 327.148C330.285 327.367 328.845 327.666 327.225 327.986C323.983 328.625 320.021 329.347 317.129 329.68C314.246 330.011 312.453 331.005 310.895 331.868C310.637 332.01 310.386 332.15 310.137 332.282C309.261 332.746 308.422 333.121 307.439 333.266C306.459 333.411 305.325 333.328 303.862 332.859C301.313 332.041 299.044 329.772 297.072 326.794C295.103 323.82 293.445 320.161 292.109 316.6C290.773 313.04 289.762 309.584 289.084 307.016C288.745 305.733 288.49 304.672 288.319 303.933C288.234 303.563 288.17 303.273 288.127 303.076C288.122 303.056 288.118 303.037 288.114 303.018C288.243 303.053 288.423 303.098 288.658 303.152C289.191 303.272 290.006 303.433 291.138 303.593C293.402 303.914 296.934 304.234 302.018 304.234L302.04 304.234L302.061 304.228C303.036 303.936 304.592 303.772 306.461 303.666C308.007 303.578 309.755 303.53 311.548 303.482C311.918 303.472 312.289 303.462 312.661 303.451C314.836 303.39 317.028 303.315 318.951 303.152C320.87 302.989 322.536 302.738 323.653 302.32C328.27 300.592 331.19 298.445 333.805 296.052C334.733 295.203 335.618 294.328 336.525 293.43C338.181 291.793 339.91 290.083 342.101 288.333C346.641 284.707 350.413 280.058 354.099 275.517C354.763 274.698 355.425 273.882 356.088 273.077C358.499 270.148 360.361 267.141 361.88 264.544C362.217 263.968 362.537 263.413 362.841 262.885C363.914 261.021 364.802 259.481 365.608 258.476C366.017 257.967 366.444 257.41 366.889 256.83C367.59 255.917 368.335 254.947 369.121 254.013C370.403 252.49 371.772 251.094 373.186 250.26C373.826 249.883 374.536 249.429 375.285 248.95L375.372 248.895C376.154 248.396 376.977 247.871 377.812 247.375C379.484 246.381 381.185 245.513 382.661 245.199C384.009 244.912 386.068 244.584 387.792 244.327C388.654 244.199 389.431 244.089 389.993 244.011C390.274 243.972 390.501 243.941 390.658 243.92L390.838 243.895L390.885 243.889L390.897 243.887L390.9 243.887L390.9 243.887L390.901 243.887L390.881 243.738ZM390.881 243.738L390.967 243.861L390.937 243.882L390.901 243.887L390.881 243.738Z"
        fill="#FFA723" stroke="black" stroke-width="0.3" />
    <path
        d="M360.421 403.279L360.443 403.279L360.464 403.272C361.44 402.981 362.996 402.816 364.864 402.71C366.41 402.623 368.159 402.575 369.952 402.527C370.322 402.517 370.693 402.507 371.065 402.496C373.24 402.435 375.432 402.359 377.354 402.197C379.273 402.034 380.94 401.783 382.056 401.365C386.673 399.637 389.593 397.49 392.208 395.097C393.136 394.248 394.021 393.372 394.929 392.475C396.585 390.837 398.313 389.128 400.505 387.377C405.044 383.752 408.817 379.103 412.502 374.561C413.167 373.742 413.829 372.927 414.491 372.122C416.902 369.193 418.765 366.185 420.284 363.589C420.621 363.013 420.94 362.458 421.245 361.93C422.318 360.066 423.205 358.526 424.011 357.521C424.42 357.011 424.848 356.455 425.292 355.875C425.993 354.962 426.738 353.991 427.524 353.058C428.807 351.535 430.176 350.139 431.59 349.305C432.229 348.927 432.94 348.474 433.689 347.995L433.775 347.94C434.557 347.441 435.381 346.916 436.215 346.42C437.888 345.426 439.588 344.558 441.064 344.244C442.413 343.956 444.471 343.628 446.196 343.372C447.058 343.244 447.835 343.134 448.396 343.056C448.677 343.017 448.904 342.986 449.061 342.964L449.241 342.94L449.288 342.934L449.3 342.932L449.303 342.932L449.304 342.932L449.304 342.932L449.304 342.932L449.313 342.93L449.284 342.783L449.313 342.93L449.313 342.93L449.314 342.93L449.317 342.929L449.329 342.927L449.375 342.918C449.417 342.911 449.478 342.9 449.557 342.886C449.715 342.858 449.945 342.82 450.232 342.777C450.805 342.692 451.604 342.59 452.504 342.522C454.312 342.385 456.508 342.388 458.125 342.925C460.85 343.831 462.509 345.396 463.836 347.374C464.501 348.365 465.083 349.461 465.674 350.632C465.828 350.937 465.983 351.248 466.14 351.563C466.584 352.454 467.046 353.381 467.562 354.327C468.921 356.824 470.029 360.3 470.797 363.161C471.18 364.59 471.479 365.862 471.681 366.777C471.782 367.235 471.859 367.603 471.911 367.856C471.923 367.913 471.933 367.964 471.942 368.008C471.874 367.989 471.791 367.966 471.696 367.94C471.384 367.855 470.931 367.735 470.366 367.595C469.237 367.315 467.658 366.954 465.864 366.635C462.28 365.996 457.815 365.515 454.337 366.167C454.064 366.218 453.798 366.267 453.537 366.315C449.555 367.053 446.797 367.564 443.474 370.242C441.743 371.637 440.145 373.976 438.984 375.953C438.402 376.944 437.927 377.848 437.598 378.504C437.433 378.833 437.305 379.099 437.218 379.284C437.174 379.376 437.141 379.448 437.118 379.497L437.093 379.553L437.087 379.566L428.841 394.169L428.84 394.171L428.827 394.19L428.778 394.265C428.757 394.296 428.731 394.335 428.7 394.381C428.667 394.43 428.629 394.487 428.585 394.552C428.417 394.802 428.171 395.165 427.86 395.614C427.238 396.511 426.357 397.755 425.32 399.139C423.246 401.909 420.557 405.23 418.083 407.463C414.14 411.02 411.202 412.685 407.064 415.029C406.343 415.438 405.585 415.867 404.779 416.33C402.382 417.709 399.212 419.294 396.64 420.535C395.354 421.155 394.218 421.689 393.404 422.067C392.997 422.257 392.67 422.407 392.445 422.511C392.333 422.562 392.246 422.602 392.187 422.629L392.12 422.659L392.108 422.665L392.093 422.669L392.019 422.69C391.953 422.709 391.856 422.736 391.73 422.771C391.478 422.841 391.112 422.941 390.655 423.064C389.74 423.309 388.459 423.643 386.998 423.998C384.074 424.709 380.432 425.501 377.543 425.833C376.429 425.961 375.374 426.099 374.362 426.232C369.323 426.892 365.365 427.41 360.467 425.839C355.312 424.185 349.754 419.403 346.437 414.07C344.78 411.405 343.689 408.613 343.482 406.018C343.275 403.427 343.949 401.034 345.819 399.145C347.042 397.909 347.895 397.588 348.636 397.724C349.013 397.793 349.38 397.983 349.768 398.265C350.157 398.547 350.557 398.913 351.007 399.326L351.037 399.353C351.926 400.17 352.99 401.148 354.463 401.922C355.954 402.706 357.859 403.279 360.421 403.279Z"
        fill="#6100FF" stroke="black" stroke-width="0.3" />
    <path
        d="M382.638 221.997C382.742 222.105 382.742 222.105 382.742 222.105L382.742 222.105L382.743 222.103L382.749 222.098L382.773 222.075L382.867 221.986C382.95 221.908 383.071 221.794 383.227 221.648C383.539 221.358 383.989 220.944 384.538 220.451C385.638 219.464 387.138 218.161 388.74 216.892C390.342 215.623 392.043 214.391 393.546 213.546C394.297 213.123 394.994 212.8 395.601 212.616C396.211 212.431 396.71 212.393 397.078 212.515C399.823 213.427 401.644 214.544 403.124 216.061C404.608 217.582 405.757 219.512 407.15 222.069C409.877 227.077 411.408 233.683 408.42 238.958C406.354 242.607 402.927 243.895 399.126 244.428C397.367 244.674 395.536 244.758 393.728 244.841C393.58 244.847 393.433 244.854 393.286 244.861C391.339 244.951 389.427 245.055 387.69 245.381C387.418 245.432 387.151 245.481 386.89 245.529C382.908 246.267 380.15 246.778 376.827 249.456C375.096 250.851 373.498 253.19 372.337 255.167C371.755 256.158 371.28 257.062 370.951 257.718C370.787 258.047 370.658 258.313 370.571 258.498C370.527 258.59 370.494 258.662 370.472 258.711L370.446 258.767L370.44 258.78L362.194 273.383L362.193 273.385L362.181 273.404L362.131 273.479C362.087 273.544 362.023 273.641 361.939 273.766C361.77 274.016 361.524 274.379 361.213 274.828C360.591 275.725 359.71 276.969 358.674 278.353C356.6 281.123 353.911 284.444 351.436 286.677C347.493 290.234 344.555 291.899 340.417 294.243C339.696 294.652 338.938 295.081 338.132 295.544C335.735 296.923 332.566 298.508 329.993 299.749C328.707 300.369 327.572 300.903 326.757 301.281C326.35 301.471 326.024 301.621 325.799 301.725C325.686 301.776 325.599 301.816 325.54 301.843L325.473 301.873L325.461 301.879L325.446 301.883L325.372 301.904C325.306 301.923 325.209 301.95 325.083 301.985C324.831 302.055 324.465 302.155 324.008 302.278C323.093 302.523 321.813 302.858 320.351 303.212C317.427 303.923 313.785 304.715 310.897 305.047C310.142 305.134 309.389 305.225 308.638 305.316C302.758 306.029 297.025 306.725 291.81 305.052C286.668 303.402 281.931 298.191 279.43 292.417C276.926 286.638 276.693 280.374 280.44 276.588C281.05 275.971 281.547 275.612 281.966 275.443C282.378 275.277 282.716 275.293 283.024 275.433C283.341 275.576 283.642 275.856 283.96 276.243C284.219 276.557 284.481 276.93 284.769 277.341C284.835 277.436 284.903 277.532 284.973 277.631C285.711 278.677 286.625 279.895 287.998 280.85C289.376 281.806 291.207 282.493 293.775 282.493L293.797 282.493L293.818 282.486C295.273 282.052 297.955 281.369 300.987 280.598C302.091 280.317 303.24 280.024 304.395 279.728C308.714 278.617 313.096 277.447 315.296 276.623C319.89 274.904 322.831 273.755 325.474 272.355C328.118 270.955 330.46 269.306 333.858 266.591C338.398 262.966 342.17 258.317 345.856 253.775C346.52 252.956 347.182 252.141 347.845 251.336C350.256 248.407 352.118 245.4 353.637 242.803C353.974 242.227 354.293 241.672 354.598 241.144C355.671 239.28 356.559 237.74 357.365 236.735C357.774 236.225 358.201 235.669 358.646 235.089C359.347 234.176 360.092 233.206 360.878 232.272C362.16 230.749 363.529 229.353 364.943 228.519C365.583 228.141 366.293 227.688 367.042 227.209L367.129 227.154C367.91 226.655 368.734 226.13 369.569 225.634C371.241 224.64 372.942 223.772 374.417 223.458C375.766 223.17 377.825 222.842 379.549 222.586C380.411 222.458 381.188 222.348 381.75 222.27C382.031 222.231 382.258 222.2 382.414 222.178L382.595 222.154L382.642 222.148L382.654 222.146L382.657 222.146L382.657 222.146L382.658 222.146L382.638 221.997ZM382.638 221.997L382.742 222.105L382.706 222.139L382.658 222.146L382.638 221.997Z"
        fill="#6100FF" stroke="black" stroke-width="0.3" />
    <path
        d="M377.589 402.545L377.577 402.396L377.577 402.396L377.578 402.396L377.583 402.395L377.602 402.394L377.678 402.387C377.745 402.381 377.843 402.372 377.971 402.359C378.226 402.334 378.596 402.294 379.055 402.239C379.974 402.127 381.248 401.949 382.673 401.685C385.526 401.156 388.961 400.285 391.339 398.917C394.03 397.369 395.906 395.497 397.693 393.482C398.118 393.004 398.538 392.516 398.963 392.023C400.324 390.443 401.736 388.804 403.512 387.202C405.987 384.97 408.676 381.648 410.75 378.878C411.786 377.494 412.667 376.251 413.289 375.353C413.6 374.904 413.846 374.542 414.014 374.292C414.099 374.167 414.163 374.07 414.207 374.004L414.256 373.929L414.269 373.91L414.27 373.908L422.519 359.299L422.532 359.277L422.552 359.26L431.295 351.661L431.299 351.656L431.334 351.614C431.364 351.578 431.41 351.524 431.469 351.456C431.587 351.319 431.76 351.124 431.982 350.887C432.426 350.413 433.063 349.773 433.84 349.107C435.391 347.777 437.513 346.328 439.766 345.906C443.223 345.258 448.431 344.689 452.771 344.282C454.941 344.079 456.896 343.916 458.308 343.804C459.015 343.748 459.585 343.704 459.979 343.675C460.158 343.661 460.301 343.651 460.403 343.644C460.396 343.62 460.388 343.594 460.379 343.567C460.328 343.4 460.25 343.156 460.149 342.847C459.947 342.23 459.649 341.354 459.265 340.321C458.498 338.255 457.39 335.565 456.026 333.061C453.26 327.981 449.044 324.488 443.554 322.664C441.938 322.127 439.741 322.125 437.934 322.261C437.033 322.329 436.235 322.431 435.661 322.517C435.375 322.559 435.145 322.597 434.986 322.625C434.907 322.639 434.846 322.65 434.805 322.658L434.758 322.666L434.746 322.669L434.743 322.669L434.743 322.669L434.743 322.669L434.714 322.522L434.743 322.669L434.734 322.671L434.733 322.671L434.733 322.671L434.733 322.671L434.73 322.671L434.718 322.673L434.671 322.679L434.49 322.704C434.334 322.725 434.107 322.756 433.826 322.795C433.264 322.873 432.487 322.983 431.625 323.111C429.901 323.368 427.842 323.696 426.493 323.983C425.018 324.297 423.317 325.165 421.645 326.159C420.81 326.655 419.986 327.18 419.204 327.679L419.118 327.734C418.369 328.213 417.659 328.667 417.019 329.044C415.605 329.878 414.236 331.274 412.954 332.797C412.168 333.731 411.423 334.701 410.722 335.614C410.277 336.194 409.85 336.751 409.441 337.26C408.635 338.265 407.747 339.805 406.674 341.669C406.369 342.198 406.05 342.752 405.713 343.328C404.194 345.925 402.332 348.932 399.921 351.861C399.258 352.666 398.596 353.482 397.932 354.301C394.246 358.842 390.474 363.491 385.934 367.117C383.742 368.867 382.014 370.577 380.358 372.214C379.451 373.112 378.565 373.987 377.637 374.836C375.022 377.229 372.102 379.376 367.486 381.104C366.369 381.522 364.703 381.773 362.784 381.936C360.861 382.099 358.669 382.174 356.494 382.235C356.122 382.246 355.751 382.256 355.381 382.266C353.588 382.314 351.839 382.362 350.293 382.45C348.425 382.556 346.869 382.72 345.894 383.012L345.873 383.018L345.851 383.018C340.767 383.018 337.234 382.698 334.971 382.377C333.839 382.217 333.024 382.056 332.491 381.936C332.252 381.881 332.07 381.835 331.941 381.801C331.971 381.953 332.015 382.175 332.075 382.459C332.196 383.032 332.381 383.855 332.636 384.854C333.145 386.852 333.932 389.549 335.042 392.35C336.152 395.151 337.584 398.05 339.383 400.454C341.182 402.859 343.339 404.758 345.897 405.578C350.794 407.15 354.753 406.631 359.792 405.971C360.803 405.838 361.858 405.7 362.973 405.572C365.861 405.24 369.503 404.448 372.427 403.738C373.889 403.383 375.169 403.048 376.084 402.803C376.541 402.68 376.907 402.58 377.159 402.51C377.285 402.475 377.382 402.448 377.448 402.429L377.522 402.408L377.541 402.403L377.546 402.402L377.547 402.401L377.548 402.401L377.589 402.545ZM377.589 402.545L377.577 402.396L377.562 402.397L377.548 402.401L377.589 402.545Z"
        fill="#CB1111" stroke="black" stroke-width="0.3" />
    <path
        d="M365.523 381.012L365.482 380.868L365.481 380.868L365.48 380.868L365.475 380.87L365.456 380.875L365.382 380.896C365.316 380.915 365.219 380.942 365.093 380.977C364.841 381.046 364.475 381.147 364.018 381.27C363.103 381.515 361.823 381.849 360.361 382.204C357.437 382.915 353.795 383.707 350.907 384.039C349.792 384.167 348.737 384.305 347.726 384.437C342.687 385.098 338.728 385.616 333.831 384.045C331.273 383.224 329.116 381.325 327.317 378.92C325.518 376.516 324.086 373.617 322.976 370.816C321.866 368.016 321.079 365.318 320.57 363.321C320.315 362.322 320.13 361.499 320.009 360.925C319.948 360.638 319.904 360.414 319.874 360.262C319.859 360.186 319.848 360.128 319.841 360.088L319.834 360.05C319.835 360.037 319.838 360.016 319.841 359.99C319.848 359.937 319.859 359.857 319.878 359.756C319.914 359.553 319.977 359.262 320.085 358.912C320.3 358.212 320.69 357.278 321.392 356.345C322.791 354.485 325.444 352.603 330.478 352.603L330.5 352.603L330.521 352.597C332.153 352.11 335.156 351.479 338.44 350.789C339.144 350.641 339.861 350.491 340.58 350.338C344.642 349.477 348.772 348.556 350.976 347.731C355.208 346.147 358.941 346.74 362.437 347.296C362.701 347.338 362.964 347.38 363.225 347.421C366.943 347.998 370.418 348.339 373.868 345.583C376.569 343.426 377.841 340.909 378.98 338.288C379.127 337.949 379.272 337.609 379.417 337.268C380.397 334.964 381.4 332.609 383.278 330.327C385.669 327.422 387.833 325.756 389.662 324.491C390.009 324.251 390.346 324.024 390.671 323.805C392.048 322.879 393.21 322.096 394.07 321.025C395.108 319.73 396.924 317.779 398.84 315.939C400.758 314.096 402.764 312.377 404.185 311.539C406.833 309.976 411.551 306.718 413.736 304.533C415.342 302.927 416.777 300.369 417.809 298.224C418.325 297.15 418.742 296.175 419.03 295.469C419.174 295.116 419.286 294.83 419.362 294.632C419.4 294.533 419.429 294.456 419.448 294.403L419.47 294.344L419.473 294.336L419.481 294.323L419.524 294.252C419.562 294.188 419.618 294.096 419.69 293.979C419.835 293.744 420.047 293.409 420.311 293.011C420.838 292.214 421.576 291.164 422.415 290.149C423.255 289.132 424.192 288.158 425.117 287.506C426.048 286.851 426.932 286.548 427.685 286.798C429.026 287.243 430.543 288.515 432.116 290.281C433.684 292.042 435.29 294.274 436.814 296.613C439.571 300.844 442.048 305.411 443.527 308.138C443.683 308.425 443.827 308.692 443.96 308.936C445.307 311.41 445.471 314.866 445.289 317.725C445.198 319.151 445.022 320.421 444.869 321.334C444.792 321.791 444.721 322.158 444.67 322.411C444.645 322.531 444.625 322.624 444.611 322.69L444.611 322.69C444.535 322.693 444.423 322.698 444.277 322.705C443.987 322.718 443.565 322.738 443.037 322.767C441.981 322.824 440.501 322.913 438.806 323.043C435.416 323.303 431.158 323.725 427.7 324.373C425.447 324.795 423.325 326.244 421.774 327.573C420.997 328.24 420.359 328.88 419.916 329.354C419.694 329.591 419.521 329.786 419.403 329.922C419.344 329.991 419.298 330.044 419.268 330.081L419.233 330.123L419.229 330.127L410.486 337.726L410.466 337.743L410.453 337.766L402.204 352.375L402.203 352.377L402.19 352.396L402.141 352.471C402.097 352.536 402.033 352.633 401.948 352.758C401.78 353.008 401.534 353.371 401.223 353.819C400.601 354.717 399.72 355.961 398.684 357.345C396.61 360.114 393.92 363.436 391.446 365.668C389.67 367.271 388.258 368.91 386.897 370.489C386.472 370.983 386.052 371.47 385.627 371.949C383.84 373.964 381.964 375.836 379.273 377.384C376.895 378.752 373.46 379.623 370.607 380.152C369.182 380.416 367.908 380.593 366.989 380.705C366.53 380.761 366.16 380.8 365.905 380.826C365.777 380.839 365.679 380.848 365.612 380.854L365.536 380.86L365.517 380.862L365.512 380.862L365.511 380.863L365.511 380.863L365.523 381.012ZM365.523 381.012L365.482 380.868L365.496 380.864L365.511 380.863L365.523 381.012Z"
        fill="#1FC41C" stroke="black" stroke-width="0.3" />
    <path
        d="M345.712 256.139L345.705 256.131L345.699 256.138L345.809 256.24C345.699 256.138 345.699 256.138 345.699 256.139L345.698 256.139L345.697 256.14L345.692 256.145L345.674 256.165L345.601 256.244C345.536 256.314 345.44 256.417 345.316 256.549C345.067 256.814 344.704 257.198 344.248 257.673C343.335 258.622 342.048 259.935 340.552 261.389C337.558 264.298 333.732 267.764 330.391 270.011C324.425 274.023 320.626 275.633 313.915 278.245C307.197 280.859 303.249 281.952 296.17 283.322C294.447 283.656 292.853 284.154 291.341 284.659C291.043 284.759 290.747 284.859 290.455 284.958C289.264 285.36 288.122 285.747 286.994 286.039C284.193 286.765 281.506 286.903 278.497 285.238C275.306 283.471 271.809 280.863 269.202 277.793C266.593 274.721 264.891 271.207 265.246 267.621C265.447 265.59 266.106 264.171 267.121 263.18C268.138 262.186 269.528 261.607 271.219 261.288C272.91 260.97 274.89 260.914 277.076 260.956C278.283 260.98 279.545 261.034 280.852 261.089C281.917 261.134 283.013 261.181 284.135 261.213C290.513 261.399 297.615 261.134 303.89 257.574C309.257 254.529 314.976 250.559 320.539 246.559C322.044 245.477 323.537 244.393 325.008 243.325C328.981 240.44 332.799 237.669 336.271 235.354C348.056 227.493 354.698 218.27 361.014 209.498C362.141 207.933 363.258 206.382 364.391 204.856C369.995 197.313 376.017 190.366 385.768 185.219C388.581 183.735 391.097 184.002 393.236 185.414C395.387 186.834 397.168 189.42 398.465 192.592C401.059 198.938 401.683 207.55 399.522 213.6C397.529 219.177 393.766 221.628 389.288 223.59C388.169 224.081 387.003 224.541 385.809 225.013C382.231 226.426 378.401 227.938 374.814 230.659C368.795 235.227 361.517 241.595 355.746 246.821C352.86 249.433 350.35 251.761 348.561 253.436C347.667 254.273 346.953 254.947 346.463 255.411C346.218 255.644 346.028 255.824 345.9 255.946L345.755 256.084L345.718 256.12L345.708 256.129L345.706 256.131L345.706 256.131C345.705 256.131 345.705 256.131 345.712 256.139Z"
        fill="#CB1111" stroke="black" stroke-width="0.3" />
    <path
        d="M241.534 198.498C241.534 198.498 240.034 198.995 236.034 197.995C231.708 196.914 234.534 197.498 228.538 196.004C223.957 194.863 224.534 193.998 227.038 190.504C230.135 186.184 230.895 183.934 233.038 177.505C234.038 174.505 243.636 177.005 248.538 184.505C252.17 190.061 249.534 195.01 246.034 197C243.654 198.353 241.534 198.498 241.534 198.498Z"
        fill="black" />
    <path
        d="M279.795 147.248C279.795 147.248 278.295 147.745 274.295 146.745C269.969 145.664 272.794 146.248 266.799 144.754C262.217 143.613 262.795 142.748 265.299 139.254C268.396 134.934 269.156 132.684 271.299 126.255C272.299 123.255 281.897 125.755 286.799 133.255C290.431 138.811 287.795 143.76 284.295 145.75C281.915 147.103 279.795 147.248 279.795 147.248Z"
        fill="black" />
    <path
        d="M227.268 219.994C227.268 219.994 226.011 220.41 222.659 219.572C219.035 218.666 221.402 219.156 216.378 217.904C212.539 216.948 213.023 216.223 215.122 213.295C217.716 209.675 218.353 207.79 220.149 202.403C220.987 199.889 229.029 201.984 233.137 208.268C236.181 212.924 233.972 217.071 231.039 218.739C229.045 219.873 227.268 219.994 227.268 219.994Z"
        fill="black" />
    <path
        d="M264.019 175.931C264.019 175.931 262.366 176.479 257.957 175.377C253.189 174.185 256.303 174.829 249.695 173.182C244.645 171.924 245.281 170.971 248.042 167.12C251.455 162.358 252.293 159.878 254.655 152.792C255.757 149.485 266.336 152.241 271.739 160.508C275.742 166.632 272.837 172.087 268.979 174.28C266.356 175.772 264.019 175.931 264.019 175.931Z"
        fill="black" />
    <path
        d="M267.531 89.6289C267.442 89.9662 260.847 91.5093 254.753 100.31L234.415 124.441C226.245 133.804 218.787 144.696 218.812 154.629C218.86 167.944 242.179 162.591 256.596 156.394L282.295 132.266L291.876 135.892C307.331 141.943 312.146 142.336 324.748 142.931L336.07 142.556C344.985 141.982 348.231 130.808 347.818 129.853L339.549 106.841C330.387 101.105 328.488 103.335 317.785 100.511L295.096 93.8766L267.531 89.6289Z"
        fill="#FAB58B" stroke="black" stroke-width="0.3" stroke-miterlimit="10" />
    <path
        d="M221.207 148.423C221.207 148.423 221.225 145.751 222.707 142.423C224.425 138.562 225.177 136.81 227.704 133.423C231.262 128.654 229.204 131.422 232.704 126.923C237.914 120.227 239.879 125.78 241.204 132.426C242.986 141.368 242.605 144.085 235.217 149.428C229.838 153.318 225.383 158.756 222.215 152.922C220.908 150.516 221.207 148.423 221.207 148.423Z"
        fill="black" />
    <path
        d="M307.937 20.2852C316.211 25.8496 323.364 31.385 328.239 35.8351C330.677 38.0609 332.541 40.0108 333.69 41.554C334.265 42.3263 334.656 42.9893 334.853 43.5287C335.051 44.0731 335.04 44.4555 334.873 44.7032C334.706 44.951 334.357 45.1059 333.778 45.1274C333.204 45.1488 332.443 45.0371 331.51 44.7957C329.648 44.3133 327.139 43.3229 324.158 41.9043C318.197 39.0682 310.373 34.532 302.098 28.9677C293.823 23.4033 286.671 17.8679 281.796 13.4178C279.358 11.1919 277.494 9.24205 276.345 7.6989C275.769 6.92654 275.379 6.26356 275.182 5.72415C274.984 5.17975 274.995 4.7974 275.162 4.54964C275.328 4.30188 275.678 4.14699 276.257 4.12543C276.831 4.10406 277.592 4.21577 278.524 4.4572C280.387 4.93958 282.896 5.92995 285.877 7.34853C291.837 10.1847 299.662 14.7208 307.937 20.2852Z"
        fill="#D9D9D9" stroke="black" stroke-width="0.3" />
</svg>