<svg width="30" height="32" viewBox="0 0 30 32" fill="none" xmlns="http://www.w3.org/2000/svg">
    <path
        d="M21.0947 10.1864C21.0947 10.1864 21.4312 10.1407 21.6473 10.1496C21.8506 10.1579 21.9752 10.1449 22.163 10.2232C22.3066 10.2831 22.4115 10.3126 22.4945 10.4443C22.5431 10.5212 22.5682 10.6653 22.5682 10.6653L21.6473 11.2915L21.0947 10.1864Z"
        fill="#221E1F" />
    <path
        d="M15.4955 14.2401C15.6313 13.9888 15.9744 13.6875 15.9744 13.6875L16.748 15.2347L15.4955 15.3083C15.4955 15.3083 15.3138 14.9883 15.3114 14.7926C15.3085 14.5652 15.3874 14.4402 15.4955 14.2401Z"
        fill="#221E1F" />
    <rect x="15.4459" y="12.4581" width="6.00928" height="18.0069" transform="rotate(-27.0217 15.4459 12.4581)"
        fill="#FAB58B" stroke="black" stroke-width="0.3" />
    <path
        d="M20.7445 9.55031C20.7433 9.58756 20.7242 9.67601 20.6713 9.81657C20.619 9.95549 20.5396 10.1302 20.4331 10.328C20.2201 10.7236 19.902 11.2053 19.4838 11.6712C18.6461 12.6045 17.4212 13.4592 15.8455 13.4592C14.1425 13.4592 13.1937 13.2621 12.6502 12.6392C12.3776 12.3268 12.1947 11.8937 12.081 11.2871C11.9673 10.6799 11.925 9.91074 11.925 8.9367C11.925 8.0453 11.8488 7.15631 11.7772 6.32112C11.7697 6.23403 11.7623 6.14752 11.755 6.06165C11.6776 5.14787 11.6167 4.31079 11.6753 3.59785C11.7339 2.88454 11.9105 2.32068 12.2861 1.9337C12.6568 1.55168 13.2467 1.3166 14.1909 1.31408C18.185 2.14985 20.5247 5.88436 20.7445 9.55031Z"
        fill="#FAB58B" stroke="black" stroke-width="0.3" />
    <path d="M7.46451 13.2575L15.9993 0.497138L19.2256 2.65506L14.9582 9.03526L10.6908 15.4155L7.46451 13.2575Z"
        fill="#603E1F" stroke="black" stroke-width="0.3" />
    <mask id="path-6-inside-1_135_193" fill="white">
        <path
            d="M12.1894 16.5963C12.1894 16.5963 4.71805 27.4067 1.20802 30.2584C-1.88839 27.3827 7.26742 13.2721 7.26742 13.2721" />
    </mask>
    <path
        d="M12.1894 16.5963C12.1894 16.5963 4.71805 27.4067 1.20802 30.2584C-1.88839 27.3827 7.26742 13.2721 7.26742 13.2721"
        fill="#A3B0BC" />
    <path
        d="M7.18346 13.3964L12.1054 16.7206L12.2733 16.472L7.35137 13.1478L7.18346 13.3964ZM1.20802 30.2584L1.00386 30.4782L1.19487 30.6556L1.39718 30.4912L1.20802 30.2584ZM12.1894 16.5963C11.9426 16.4257 11.9426 16.4257 11.9425 16.4258C11.9425 16.4259 11.9424 16.426 11.9423 16.4261C11.9421 16.4265 11.9417 16.4269 11.9413 16.4276C11.9404 16.4289 11.9391 16.4308 11.9373 16.4334C11.9337 16.4385 11.9284 16.4462 11.9213 16.4564C11.9072 16.4768 11.8861 16.5072 11.8584 16.547C11.803 16.6266 11.7212 16.7438 11.6158 16.8941C11.4051 17.1947 11.1001 17.6274 10.723 18.1557C9.96871 19.2123 8.9267 20.6505 7.77542 22.1773C5.46303 25.2441 2.73996 28.6273 1.01885 30.0256L1.39718 30.4912C3.18611 29.0379 5.95371 25.59 8.2545 22.5386C9.4098 21.0064 10.455 19.5637 11.2113 18.5043C11.5895 17.9745 11.8956 17.5403 12.1071 17.2386C12.2129 17.0877 12.2951 16.9699 12.3509 16.8897C12.3787 16.8496 12.4 16.819 12.4144 16.7983C12.4215 16.788 12.427 16.7801 12.4306 16.7749C12.4324 16.7722 12.4338 16.7702 12.4347 16.7689C12.4352 16.7682 12.4356 16.7677 12.4358 16.7674C12.4359 16.7672 12.436 16.7671 12.4361 16.767C12.4361 16.7669 12.4362 16.7668 12.1894 16.5963ZM1.41217 30.0386C1.10112 29.7497 0.921628 29.2999 0.878649 28.6821C0.835679 28.0643 0.932132 27.311 1.13989 26.4625C1.55513 24.7666 2.39816 22.756 3.34604 20.8187C4.29228 18.8848 5.33573 17.0385 6.14334 15.6747C6.54697 14.9931 6.89129 14.4327 7.13455 14.0429C7.25618 13.848 7.35252 13.6958 7.41835 13.5925C7.45126 13.5408 7.47655 13.5014 7.49356 13.475C7.50206 13.4617 7.5085 13.4518 7.51278 13.4451C7.51492 13.4418 7.51652 13.4394 7.51757 13.4377C7.5181 13.4369 7.51849 13.4363 7.51874 13.4359C7.51887 13.4357 7.51895 13.4356 7.51902 13.4355C7.51907 13.4354 7.51908 13.4354 7.26742 13.2721C7.01575 13.1088 7.0157 13.1089 7.01561 13.109C7.01553 13.1091 7.01541 13.1093 7.01525 13.1096C7.01495 13.11 7.01451 13.1107 7.01393 13.1116C7.01277 13.1134 7.01106 13.1161 7.00881 13.1195C7.00431 13.1265 6.99766 13.1368 6.98893 13.1504C6.97148 13.1775 6.94573 13.2177 6.91235 13.2701C6.84557 13.3748 6.74823 13.5286 6.62555 13.7252C6.3802 14.1183 6.03341 14.6828 5.62707 15.369C4.81473 16.7408 3.76274 18.6019 2.80709 20.555C1.85306 22.5049 0.987721 24.5611 0.557107 26.3198C0.341941 27.1985 0.231102 28.0194 0.280095 28.7237C0.32908 29.4279 0.540808 30.0482 1.00386 30.4782L1.41217 30.0386Z"
        fill="black" mask="url(#path-6-inside-1_135_193)" />
    <mask id="path-8-inside-2_135_193" fill="white">
        <path
            d="M12.2185 16.5978C12.2185 16.5978 4.78101 27.4008 1.22523 30.2615C0.368604 28.8417 2.86051 25.4185 5.24169 21.9204C7.58638 18.4758 9.92598 15.0605 9.92598 15.0605" />
    </mask>
    <path
        d="M12.2185 16.5978C12.2185 16.5978 4.78101 27.4008 1.22523 30.2615C0.368604 28.8417 2.86051 25.4185 5.24169 21.9204C7.58638 18.4758 9.92598 15.0605 9.92598 15.0605"
        fill="#CED3D8" />
    <path
        d="M9.84244 15.1851L12.1349 16.7224L12.302 16.4732L10.0095 14.9359L9.84244 15.1851ZM1.22523 30.2615L0.968361 30.4165L1.14574 30.7105L1.41328 30.4953L1.22523 30.2615ZM5.24169 21.9204L5.48969 22.0892L5.24169 21.9204ZM12.2185 16.5978C11.9714 16.4277 11.9714 16.4277 11.9713 16.4278C11.9713 16.4279 11.9712 16.428 11.9711 16.4282C11.9709 16.4285 11.9705 16.4289 11.9701 16.4296C11.9692 16.4309 11.9679 16.4328 11.9661 16.4354C11.9626 16.4405 11.9573 16.4482 11.9502 16.4584C11.9361 16.4788 11.9151 16.5092 11.8875 16.5489C11.8324 16.6285 11.751 16.7456 11.646 16.8958C11.4362 17.1961 11.1323 17.6286 10.7564 18.1565C10.0047 19.2125 8.9655 20.65 7.81565 22.1764C5.50604 25.2424 2.78034 28.6254 1.03718 30.0278L1.41328 30.4953C3.22589 29.037 5.99682 25.5881 8.29489 22.5374C9.44889 21.0055 10.4913 19.5634 11.2452 18.5045C11.6222 17.9749 11.9271 17.5411 12.1379 17.2394C12.2433 17.0886 12.3251 16.9709 12.3806 16.8908C12.4084 16.8507 12.4296 16.8201 12.4439 16.7994C12.451 16.7891 12.4564 16.7813 12.46 16.776C12.4619 16.7734 12.4632 16.7714 12.4642 16.77C12.4646 16.7693 12.465 16.7688 12.4652 16.7685C12.4653 16.7683 12.4654 16.7682 12.4655 16.7681C12.4655 16.768 12.4656 16.7679 12.2185 16.5978ZM1.4821 30.1066C1.33028 29.8549 1.30401 29.4733 1.44681 28.927C1.58781 28.3876 1.87944 27.7428 2.28179 27.0155C3.08664 25.5607 4.29335 23.8467 5.48969 22.0892L4.99369 21.7515C3.80885 23.4922 2.57902 25.2388 1.75678 26.7251C1.34558 27.4684 1.02603 28.1642 0.866311 28.7753C0.708388 29.3795 0.691865 29.9582 0.968361 30.4165L1.4821 30.1066ZM5.48969 22.0892C6.66188 20.3671 7.83284 18.6523 8.71076 17.368C9.14972 16.7259 9.51541 16.1914 9.77135 15.8174C9.89933 15.6304 9.99986 15.4836 10.0684 15.3835C10.1027 15.3334 10.1289 15.2951 10.1467 15.2692C10.1555 15.2563 10.1622 15.2465 10.1667 15.2399C10.169 15.2367 10.1706 15.2342 10.1718 15.2325C10.1723 15.2317 10.1728 15.2311 10.1731 15.2307C10.1732 15.2305 10.1733 15.2303 10.1734 15.2302C10.1734 15.2301 10.1734 15.2301 10.1735 15.2301C10.1735 15.2301 10.1735 15.23 9.92598 15.0605C9.67849 14.891 9.67848 14.891 9.67846 14.891C9.67844 14.891 9.67842 14.8911 9.67838 14.8911C9.67831 14.8912 9.6782 14.8914 9.67806 14.8916C9.67777 14.892 9.67735 14.8926 9.67678 14.8934C9.67564 14.8951 9.67395 14.8976 9.6717 14.9009C9.6672 14.9074 9.66048 14.9172 9.65162 14.9302C9.63391 14.956 9.60763 14.9944 9.57334 15.0445C9.50478 15.1446 9.40422 15.2915 9.27622 15.4785C9.02022 15.8526 8.65446 16.3872 8.21543 17.0294C7.33738 18.3139 6.16619 20.0291 4.99369 21.7515L5.48969 22.0892Z"
        fill="black" mask="url(#path-8-inside-2_135_193)" />
    <path
        d="M10.0318 12.5106C10.0318 12.5106 13.4767 13.4305 13.7467 12.6227C14.2576 11.0911 11.8503 11.0302 11.8503 11.0302C11.8503 11.0302 10.7171 9.79702 10.4694 9.21378C10.0998 8.34194 10.8165 6.80413 11.2014 6.08529C11.2947 5.91031 11.0063 5.9857 10.8481 5.90718C10.1437 5.55872 8.2165 7.82698 8.03986 8.35563C7.77109 9.16266 7.49833 9.41305 7.8888 10.3352C8.38216 11.5012 10.0328 12.5108 10.0328 12.5108L10.0318 12.5106Z"
        fill="#FAB58B" stroke="black" stroke-width="0.3" stroke-miterlimit="10" />
    <path
        d="M10.9722 11.049C10.9722 11.049 14.4448 12.2193 14.6582 11.4C15.0631 9.84651 12.6752 9.63193 12.6752 9.63193C12.6752 9.63193 11.4717 8.28338 11.1886 7.66397C10.7656 6.73775 11.3741 5.19092 11.7074 4.47069C11.7884 4.29597 11.5082 4.35549 11.3457 4.26414C10.6258 3.85861 8.7027 5.99087 8.56216 6.52734C8.34881 7.34661 8.25939 7.68248 8.70623 8.66149C9.2723 9.9003 10.9722 11.049 10.9722 11.049Z"
        fill="#FAB58B" stroke="black" stroke-width="0.3" stroke-miterlimit="10" />
    <path
        d="M12.1962 9.71896C12.1962 9.71896 15.7676 10.9982 16.0288 9.97877C16.5244 8.04573 14.0409 7.89322 14.0409 7.89322C14.0409 7.89322 12.8473 6.28808 12.5808 5.53818C12.1824 4.41681 12.8903 2.48246 13.2721 1.57946C13.3649 1.3604 13.0694 1.44686 12.9041 1.34192C12.1713 0.876003 9.60473 4.17892 9.43284 4.84648C9.17166 5.86588 9.52103 5.69821 9.94178 6.88351C10.4749 8.38332 12.1962 9.71896 12.1962 9.71896Z"
        fill="#FAB58B" stroke="black" stroke-width="0.3" stroke-miterlimit="10" />
    <path
        d="M13.6455 8.0953C13.6455 8.0953 16.7548 9.20527 16.9801 8.32646C17.4077 6.66004 14.876 6.11448 14.876 6.11448C14.876 6.11448 13.9825 4.96138 13.7493 4.31406C13.5821 3.33867 14.9064 2.12238 15.2369 1.3442C15.2369 1.3442 14.5711 0.907637 13.8483 0.705086C12.7026 0.740416 11.3796 3.73902 11.2313 4.3145C11.006 5.19331 11.2314 5.16676 11.6378 5.86325C12.1043 7.15788 13.6455 8.0953 13.6455 8.0953Z"
        fill="#FAB58B" stroke="black" stroke-width="0.3" stroke-miterlimit="10" />
    <path
        d="M23.1081 28.5568C22.9576 28.2684 22.9007 28.0224 22.9103 27.8109C22.9199 27.6011 22.9952 27.4137 23.129 27.2413C23.4023 26.8887 23.9156 26.6035 24.5813 26.3569C25.242 26.1121 26.0261 25.9147 26.8167 25.7222C26.8878 25.7049 26.959 25.6876 27.0302 25.6704C27.7459 25.4967 28.4578 25.3239 29.0639 25.1219C29.0944 25.1118 29.1375 25.1167 29.2115 25.1861C29.2731 25.2438 29.327 25.319 29.3801 25.3932C29.3903 25.4075 29.4006 25.4218 29.4108 25.4359C29.4581 25.5009 29.491 25.6173 29.5099 25.7376C29.5162 25.7774 29.5205 25.8146 29.5234 25.8461L23.299 28.873C23.2904 28.8599 23.2814 28.846 23.2721 28.8315C23.2163 28.7448 23.1515 28.6398 23.1081 28.5568Z"
        fill="#ECFA4E" stroke="black" stroke-width="0.3" />
    <path
        d="M28.4811 24.0264L28.4966 24.0292C28.4981 24.0307 28.4995 24.0323 28.501 24.034C28.5245 24.0597 28.5571 24.0965 28.5935 24.1402C28.6676 24.2292 28.7523 24.341 28.8088 24.4447C28.8426 24.5068 28.8902 24.5706 28.9316 24.6262C28.9345 24.6301 28.9374 24.6339 28.9403 24.6378C28.9868 24.7003 29.0276 24.7563 29.0575 24.8113C29.0873 24.8662 29.0991 24.9079 29.0989 24.9405C29.0988 24.9676 29.0906 25.0011 29.0511 25.0441C28.7563 25.3656 28.4877 25.4012 28.0131 25.4639C27.908 25.4778 27.7928 25.493 27.665 25.513C27.4911 25.5402 27.3562 25.63 27.2441 25.7383C27.1445 25.8346 27.0546 25.9541 26.9693 26.0676C26.9612 26.0784 26.9531 26.0892 26.9451 26.0999C26.753 26.3547 26.5606 26.5917 26.2411 26.6977C25.371 26.9865 24.9012 27.431 24.5143 27.797C24.5027 27.8081 24.4911 27.819 24.4796 27.8299C24.089 28.1989 23.7939 28.4583 23.2308 28.4583C23.1241 28.4582 22.9787 28.3992 22.8338 28.2938C22.6911 28.19 22.5736 28.0592 22.5167 27.9497C22.4615 27.8436 22.4186 27.6856 22.3893 27.544C22.383 27.5136 22.3774 27.4847 22.3726 27.458C22.4116 27.4544 22.4566 27.4497 22.507 27.4432C22.6961 27.4191 22.9621 27.3718 23.2737 27.2787C23.3027 27.27 23.3334 27.2609 23.3654 27.2514C23.5849 27.1862 23.8665 27.1026 24.0938 27.0176C24.6471 26.8105 25.1699 26.4667 25.5712 26.1462C25.8838 25.8965 26.0684 25.7435 26.3305 25.425C26.4785 25.2452 26.6311 24.9969 26.7445 24.7987C26.8018 24.6986 26.8501 24.6094 26.8842 24.5451C26.9013 24.5129 26.9148 24.487 26.924 24.4689L26.9314 24.4545C26.9607 24.4173 26.9854 24.3824 27.0071 24.3511C27.0112 24.3453 27.0151 24.3396 27.0189 24.3341C27.0384 24.306 27.0548 24.2825 27.0722 24.2597C27.1105 24.2095 27.1492 24.1698 27.2118 24.1329C27.2645 24.1018 27.3529 24.0771 27.4416 24.0605C27.4834 24.0528 27.521 24.0475 27.548 24.0442C27.5615 24.0426 27.5723 24.0415 27.5795 24.0408L27.5874 24.04L27.5892 24.0399L27.5894 24.0399L27.5894 24.0399L27.5894 24.0399L27.5895 24.0399L27.5895 24.0399L27.6034 24.0388L27.617 24.0351L27.617 24.0351L27.617 24.0351L27.617 24.0351L27.617 24.0351L27.6174 24.035L27.6191 24.0345L27.6263 24.0326L27.6544 24.0254C27.6786 24.0194 27.7125 24.0114 27.751 24.0032C27.8306 23.9864 27.9207 23.9712 27.9865 23.9695C28.0663 23.9676 28.2017 23.9832 28.3264 24.0016C28.3868 24.0105 28.4415 24.0196 28.4811 24.0264Z"
        fill="#1FC41C" stroke="black" stroke-width="0.3" />
    <path
        d="M22.2946 27.1864L22.2665 27.1889C22.2581 27.1824 22.2486 27.175 22.2383 27.1668C22.1929 27.1309 22.1307 27.0798 22.0634 27.0193C21.925 26.8949 21.7794 26.7432 21.7055 26.608C21.6462 26.4995 21.5981 26.3378 21.5643 26.1934C21.558 26.1663 21.5523 26.1404 21.5472 26.1162L22.1115 26.1162L22.1239 26.1162L22.1361 26.1141L23.2412 25.9308L23.2698 25.926L23.2947 25.9109L24.7236 25.0402L24.7466 25.0262L24.7633 25.005L25.5004 24.0704L25.5069 24.0621L25.5123 24.0529L25.3826 23.9775L25.5123 24.0529L25.5123 24.0529L25.5123 24.0528L25.5126 24.0524L25.5136 24.0507L25.5175 24.044L25.5325 24.0183L25.587 23.9253C25.6327 23.8477 25.6948 23.7427 25.7607 23.6331C25.8959 23.4079 26.037 23.1802 26.0895 23.1147C26.1406 23.051 26.178 22.9879 26.2046 22.943C26.213 22.9288 26.2203 22.9164 26.2267 22.9064C26.2533 22.8643 26.2771 22.8357 26.3279 22.8057C26.4792 22.7164 26.6205 22.6432 26.7791 22.6152C26.8377 22.6048 26.8828 22.6061 26.9379 22.6102C26.9458 22.6108 26.9541 22.6115 26.9627 22.6122C27.0147 22.6163 27.0797 22.6216 27.1589 22.6172C27.3862 22.6047 27.5043 22.6058 27.6941 22.6783C27.8 22.7188 27.9018 22.8067 27.9969 22.932C28.0911 23.0561 28.1708 23.2067 28.2357 23.356C28.294 23.4903 28.3387 23.6199 28.3702 23.7219C28.3293 23.7189 28.2844 23.716 28.237 23.7137C28.0433 23.7044 27.7912 23.7032 27.6008 23.7449C27.5831 23.7488 27.5657 23.7526 27.5485 23.7563C27.3221 23.8052 27.1353 23.8456 26.9167 24.0217C26.7989 24.1167 26.7298 24.2138 26.6733 24.3124C26.653 24.3479 26.6334 24.3852 26.6147 24.4209C26.6088 24.4322 26.6029 24.4434 26.5972 24.4543C26.5724 24.501 26.5469 24.5476 26.5158 24.5964C26.4258 24.7383 26.3671 24.8674 26.3153 24.9813C26.3046 25.0049 26.2941 25.0279 26.2838 25.0501C26.2232 25.1806 26.1613 25.2981 26.0501 25.4269C25.9354 25.5596 25.828 25.6436 25.7094 25.7241C25.6741 25.7481 25.6359 25.7728 25.5955 25.7991C25.5039 25.8585 25.4008 25.9255 25.2918 26.0083C25.1836 26.0905 25.1 26.1606 25.0241 26.2244C24.8832 26.3425 24.7685 26.4387 24.5718 26.5497C24.327 26.6878 24.1647 26.7432 23.9124 26.8294C23.875 26.8421 23.8357 26.8556 23.7938 26.87C23.4998 26.9717 23.3374 27.0235 23.0385 27.086C22.8826 27.1187 22.6766 27.1457 22.5065 27.1647C22.4221 27.1741 22.3478 27.1814 22.2946 27.1864Z"
        fill="#2374EE" stroke="black" stroke-width="0.3" />
    <path
        d="M21.8288 17.3879L21.6991 17.3125L21.8288 17.3879L21.8288 17.3879L21.8288 17.3878L21.8291 17.3874L21.8301 17.3857L21.834 17.379L21.849 17.3533L21.9035 17.2603C21.9492 17.1827 22.0113 17.0777 22.0772 16.968C22.2124 16.7429 22.3535 16.5152 22.406 16.4497C22.4571 16.386 22.4945 16.3229 22.5211 16.278C22.5295 16.2637 22.5368 16.2513 22.5432 16.2413C22.5698 16.1993 22.5936 16.1706 22.6444 16.1407C22.7958 16.0514 22.937 15.9781 23.0956 15.9502C23.1397 15.9424 23.1875 15.9196 23.2238 15.9008C23.2653 15.8794 23.3134 15.8515 23.3643 15.8206C23.452 15.7672 23.5551 15.7006 23.6581 15.634C23.6747 15.6233 23.6913 15.6126 23.7079 15.6019C23.8286 15.524 23.9463 15.4488 24.0432 15.3926C24.0918 15.3645 24.1325 15.3427 24.1641 15.3281C24.1822 15.3197 24.1933 15.3157 24.1986 15.3139C24.2012 15.3159 24.2058 15.3202 24.2121 15.3283C24.2337 15.3562 24.2568 15.4049 24.2828 15.4792C24.2984 15.5242 24.3119 15.5682 24.3264 15.6154C24.3364 15.6483 24.347 15.6827 24.3591 15.7202C24.3862 15.804 24.4192 15.8955 24.4641 15.9741C24.5983 16.209 24.6514 16.5138 24.6684 16.7715C24.6767 16.8983 24.6761 17.0095 24.6733 17.0889C24.672 17.1285 24.6701 17.1599 24.6686 17.1811L24.6667 17.205L24.6662 17.2107L24.6661 17.2119L24.6661 17.212L24.6661 17.2121L24.6661 17.2121L24.6661 17.2121L24.664 17.2324L24.667 17.2497C24.667 17.2497 24.667 17.2497 24.667 17.2497C24.6671 17.2516 24.6673 17.2557 24.6671 17.2614C24.6665 17.2732 24.6641 17.289 24.6571 17.3055C24.6467 17.3298 24.6155 17.383 24.4885 17.4109C24.3337 17.4448 24.2453 17.5001 24.1682 17.5753C24.1391 17.6036 24.1177 17.6273 24.0974 17.6497C24.0628 17.6879 24.0312 17.7228 23.97 17.7721C23.9394 17.7967 23.8953 17.8189 23.8339 17.8409C23.789 17.857 23.7431 17.8703 23.6924 17.8851C23.6722 17.891 23.6513 17.8971 23.6295 17.9036C23.4947 17.944 23.3032 18.0053 23.2007 18.1667C23.1095 18.3103 23.0213 18.3959 22.9212 18.4833C22.9048 18.4976 22.8877 18.5122 22.8702 18.5273C22.7803 18.6045 22.6767 18.6934 22.5653 18.8224C22.473 18.9292 22.3834 19.0523 22.2972 19.1706C22.2617 19.2193 22.2268 19.2672 22.1926 19.3129C22.0705 19.4756 21.9503 19.6188 21.8144 19.7222C21.7368 19.7811 21.6788 19.8398 21.65 19.9075C21.627 19.9619 21.6283 20.0099 21.6333 20.0422C21.6209 20.051 21.602 20.0633 21.5736 20.0793C21.529 20.1045 21.4463 20.125 21.3213 20.1367C21.2009 20.148 21.0606 20.1495 20.913 20.1493C20.8843 20.1493 20.8552 20.1491 20.826 20.149C20.7082 20.1486 20.5883 20.1481 20.4798 20.1522C20.3475 20.1572 20.2133 20.1694 20.1104 20.205C19.8163 20.3067 19.6539 20.3585 19.3551 20.421C19.1687 20.46 18.9533 20.5641 18.7936 20.651C18.723 20.6895 18.6603 20.7263 18.6118 20.7556C18.6012 20.7448 18.5897 20.7331 18.5775 20.7205C18.5053 20.6463 18.4074 20.5437 18.3045 20.4301C18.2013 20.3162 18.0942 20.1924 18.0029 20.0756C17.91 19.9566 17.84 19.8529 17.8049 19.7777C17.7867 19.7386 17.775 19.6786 17.773 19.5996C17.771 19.5227 17.7783 19.4387 17.7899 19.3588C17.8014 19.2794 17.8165 19.2073 17.8288 19.1549C17.8289 19.1546 17.8289 19.1544 17.829 19.1541C17.8437 19.1505 17.86 19.1465 17.8777 19.1422C17.959 19.1226 18.0681 19.0979 18.1806 19.0771C18.2942 19.056 18.4066 19.0398 18.4959 19.0357C18.5409 19.0336 18.5747 19.0349 18.5976 19.0383C18.6033 19.0391 18.6075 19.04 18.6103 19.0407C18.6644 19.0839 18.7292 19.0928 18.7722 19.0945C18.8232 19.0965 18.8778 19.0894 18.9296 19.0791C19.034 19.0583 19.1538 19.0189 19.2632 18.978C19.3738 18.9367 19.4795 18.8917 19.5571 18.8571C19.596 18.8398 19.6281 18.8251 19.6506 18.8146L19.6761 18.8026L21.0064 18.3904L21.0509 18.3766L21.0798 18.34L21.8169 17.4054L21.8235 17.3971L21.8288 17.3879Z"
        fill="#2374EE" stroke="black" stroke-width="0.3" />
    <path
        d="M23.1892 25.627L23.1798 25.6313L23.1688 25.6344C23.1546 25.6383 23.1337 25.644 23.1076 25.6511C23.0553 25.6651 22.9821 25.6842 22.8986 25.7045C22.73 25.7454 22.5257 25.7896 22.3672 25.8079C22.2974 25.8159 22.2331 25.8242 22.1728 25.832C21.8827 25.8696 21.6874 25.8949 21.4355 25.814C21.3254 25.7787 21.2222 25.6933 21.1274 25.5666C21.0332 25.4407 20.9556 25.2849 20.8937 25.1288C20.8383 24.9892 20.7973 24.8535 20.7688 24.7462C20.9073 24.7642 21.1099 24.7806 21.3896 24.7806L21.4116 24.7806L21.4326 24.7743C21.4713 24.7628 21.546 24.7536 21.6555 24.7474C21.7429 24.7424 21.8418 24.7397 21.9458 24.7369C21.9674 24.7363 21.9893 24.7357 22.0113 24.7351C22.1374 24.7316 22.2682 24.7271 22.3843 24.7173C22.4965 24.7078 22.6102 24.6922 22.6947 24.6606C22.9834 24.5525 23.168 24.4167 23.3297 24.2687C23.3917 24.212 23.4461 24.1581 23.4998 24.1048C23.5916 24.0138 23.6815 23.9247 23.804 23.8269C24.0805 23.606 24.3105 23.3224 24.5239 23.0592C24.562 23.0123 24.5995 22.966 24.6367 22.9209C24.7837 22.7422 24.8963 22.5601 24.9857 22.4072C25.0078 22.3695 25.0279 22.3345 25.0465 22.3023C25.1071 22.1972 25.1509 22.1212 25.1903 22.0722C25.2183 22.0373 25.2443 22.0032 25.2704 21.9692C25.3088 21.9191 25.3473 21.8689 25.392 21.8158C25.4642 21.73 25.5311 21.6644 25.5917 21.6286C25.631 21.6054 25.6741 21.5779 25.7168 21.5506L25.7227 21.5468C25.7683 21.5177 25.8143 21.4884 25.8605 21.461C25.9564 21.404 26.038 21.3645 26.0992 21.3514C26.1726 21.3358 26.2881 21.3173 26.3883 21.3024C26.4378 21.295 26.4824 21.2887 26.5147 21.2842L26.5528 21.279L26.5631 21.2776L26.5657 21.2772L26.5663 21.2772L26.5665 21.2771L26.5665 21.2771L26.5666 21.2774L26.5755 21.2757L26.5755 21.2757L26.5755 21.2757L26.5756 21.2757L26.5758 21.2756L26.5778 21.2752L26.5869 21.2736C26.595 21.2722 26.6072 21.2702 26.6225 21.2679C26.6533 21.2633 26.6962 21.2578 26.7443 21.2542C26.8465 21.2465 26.9498 21.249 27.0153 21.2708C27.1376 21.3114 27.2104 21.3789 27.2739 21.4736C27.3074 21.5235 27.3379 21.5805 27.3718 21.6476C27.3801 21.6641 27.3887 21.6813 27.3976 21.6991C27.4236 21.7514 27.4521 21.8086 27.4834 21.866C27.5539 21.9954 27.6147 22.1836 27.6588 22.3477C27.6637 22.3659 27.6683 22.3837 27.6727 22.4009C27.63 22.3917 27.5833 22.3824 27.5338 22.3736C27.3231 22.336 27.0425 22.3038 26.814 22.3466C26.797 22.3498 26.7803 22.3529 26.7637 22.3559C26.5345 22.3982 26.3422 22.4336 26.1209 22.612C25.9993 22.71 25.8958 22.8649 25.8271 22.9819C25.7914 23.0427 25.7624 23.098 25.7422 23.1382C25.7321 23.1583 25.7242 23.1748 25.7187 23.1864L25.713 23.1988L25.2398 24.0368L25.239 24.0379L25.2283 24.0539C25.2188 24.068 25.2049 24.0885 25.1872 24.114C25.1519 24.165 25.1018 24.2358 25.0429 24.3144C24.9235 24.4738 24.7742 24.6573 24.6414 24.7772C24.4246 24.9727 24.2675 25.0618 24.0284 25.1974C23.9862 25.2213 23.9415 25.2466 23.8935 25.2743C23.759 25.3516 23.5789 25.4417 23.4302 25.5135C23.3563 25.5491 23.291 25.5798 23.2442 25.6016L23.1892 25.627Z"
        fill="#FFA723" stroke="black" stroke-width="0.3" />
    <path
        d="M23.9555 15.4636C23.9431 15.4773 23.9324 15.4884 23.9245 15.4962C23.911 15.5026 23.8911 15.5119 23.866 15.5233C23.8154 15.5463 23.7437 15.5778 23.6598 15.6115C23.4903 15.6797 23.2785 15.7542 23.0929 15.789C22.9941 15.8075 22.9059 15.8615 22.8326 15.9196C22.7577 15.9788 22.6863 16.052 22.6212 16.1235C22.582 16.1666 22.5413 16.2135 22.5031 16.2575C22.4796 16.2847 22.457 16.3107 22.4364 16.334C22.378 16.3999 22.3298 16.4503 22.2897 16.4827C22.1719 16.5776 22.0601 16.7268 21.9826 16.8415C21.9425 16.9007 21.909 16.9546 21.8855 16.9937C21.8737 17.0133 21.8643 17.0293 21.8579 17.0405L21.8552 17.0452L21.312 17.6808L21.307 17.6867L21.3026 17.693L21.3026 17.693L21.3026 17.693L21.3026 17.693L21.3025 17.6931L21.3021 17.6937L21.3001 17.6966L21.2918 17.7083C21.2844 17.7187 21.2734 17.7341 21.2593 17.7533C21.231 17.792 21.1902 17.8462 21.1406 17.9085C21.0407 18.0339 20.9084 18.1873 20.773 18.3095C20.6351 18.4339 20.5605 18.4995 20.4794 18.5469C20.4021 18.5922 20.312 18.6245 20.1404 18.6634C19.9808 18.6995 19.7714 18.74 19.6006 18.7717C19.5155 18.7875 19.4405 18.8009 19.3867 18.8105L19.3235 18.8216L19.3066 18.8246L19.3022 18.8253L19.3012 18.8255L19.3009 18.8256L19.3008 18.8256L19.3008 18.8256L19.3008 18.8254L19.294 18.8269L19.2939 18.8269L19.2939 18.8269L19.2936 18.827L19.2924 18.8273L19.2876 18.8283L19.2688 18.8324L19.1987 18.8474C19.1391 18.86 19.0562 18.8772 18.963 18.8956C18.7751 18.9327 18.55 18.9736 18.3883 18.9922C18.1914 19.0148 18.0632 19.0862 17.9722 19.1369C17.9581 19.1448 17.9448 19.1522 17.9324 19.1588C17.8862 19.1833 17.8545 19.1961 17.8214 19.2009C17.7899 19.2056 17.7461 19.2045 17.6776 19.1825C17.5759 19.1499 17.4669 19.0512 17.3582 18.8871C17.2522 18.727 17.1604 18.5257 17.0847 18.3239C17.0093 18.1231 16.952 17.9273 16.9134 17.7812C16.9118 17.7751 16.9102 17.769 16.9086 17.7629C17.0471 17.7809 17.2491 17.7971 17.5274 17.7971L17.5494 17.7971L17.5704 17.7909C17.6091 17.7793 17.6838 17.7701 17.7933 17.7639C17.8807 17.7589 17.9796 17.7563 18.0836 17.7535C18.1053 17.7529 18.1271 17.7523 18.1491 17.7517C18.2752 17.7481 18.406 17.7437 18.5221 17.7338C18.6343 17.7243 18.748 17.7087 18.8325 17.6771C19.1212 17.569 19.3058 17.4333 19.4675 17.2853C19.5295 17.2285 19.5839 17.1746 19.6377 17.1214C19.7295 17.0304 19.8193 16.9413 19.9418 16.8434C20.2183 16.6226 20.4483 16.3389 20.6617 16.0758C20.6998 16.0288 20.7373 15.9826 20.7745 15.9374C20.9215 15.7588 21.0341 15.5766 21.1235 15.4238C21.1456 15.386 21.1657 15.351 21.1843 15.3188C21.2449 15.2137 21.2887 15.1378 21.3281 15.0887C21.3561 15.0538 21.3821 15.0198 21.4082 14.9857C21.4466 14.9356 21.4851 14.8854 21.5298 14.8323C21.602 14.7465 21.6689 14.6809 21.7295 14.6452C21.7688 14.622 21.8119 14.5944 21.8546 14.5671L21.8605 14.5634C21.9061 14.5343 21.9521 14.505 21.9983 14.4775C22.0942 14.4205 22.1758 14.381 22.237 14.3679C22.3104 14.3523 22.4259 14.3338 22.5261 14.3189C22.5756 14.3116 22.6202 14.3052 22.6525 14.3008L22.6906 14.2955L22.7009 14.2941L22.7035 14.2938L22.7042 14.2937L22.7043 14.2937L22.7043 14.2937L22.7043 14.2937L22.7405 14.2889L22.7704 14.268L22.7704 14.268L22.7704 14.268L22.7704 14.268L22.7708 14.2677L22.7723 14.2666L22.7787 14.2623L22.8036 14.2452C22.8252 14.2305 22.8564 14.2095 22.8946 14.1844C22.971 14.1341 23.0744 14.0681 23.1831 14.0042C23.2926 13.9399 23.4038 13.8801 23.4967 13.8406C23.5433 13.8208 23.581 13.808 23.609 13.8016C23.6209 13.7989 23.6285 13.798 23.6326 13.7976C23.655 13.8086 23.6928 13.8431 23.738 13.9329C23.7852 14.0265 23.8259 14.1512 23.8643 14.2918C23.887 14.3751 23.9068 14.4554 23.9265 14.5355C23.9411 14.5944 23.9555 14.6532 23.9711 14.7128C24.0049 14.8424 24.0435 14.974 24.0939 15.0666C24.1335 15.1392 24.1155 15.2318 24.0499 15.3391C24.0194 15.3888 23.984 15.4322 23.9555 15.4636Z"
        fill="#FFA723" stroke="black" stroke-width="0.3" />
    <path
        d="M20.9171 23.5443L20.9391 23.5443L20.9601 23.538C20.9988 23.5264 21.0735 23.5173 21.183 23.5111C21.2704 23.5061 21.3693 23.5034 21.4733 23.5006C21.495 23.5 21.5168 23.4994 21.5388 23.4988C21.6649 23.4953 21.7958 23.4908 21.9118 23.481C22.024 23.4714 22.1377 23.4559 22.2223 23.4242C22.5109 23.3162 22.6955 23.1804 22.8573 23.0324C22.9193 22.9757 22.9736 22.9218 23.0274 22.8685C23.1192 22.7775 23.209 22.6884 23.3316 22.5905C23.608 22.3697 23.838 22.0861 24.0515 21.8229C24.0895 21.776 24.127 21.7297 24.1642 21.6846C24.3113 21.5059 24.4238 21.3238 24.5132 21.1709C24.5353 21.1331 24.5555 21.0982 24.574 21.0659C24.6346 20.9609 24.6784 20.8849 24.7178 20.8359C24.7458 20.801 24.7719 20.7669 24.798 20.7329C24.8363 20.6828 24.8748 20.6326 24.9195 20.5794C24.9917 20.4937 25.0586 20.4281 25.1192 20.3923C25.1585 20.3691 25.2017 20.3415 25.2443 20.3143L25.2503 20.3105C25.2958 20.2814 25.3418 20.2521 25.388 20.2247C25.4839 20.1677 25.5655 20.1281 25.6267 20.1151C25.7001 20.0994 25.8156 20.081 25.9158 20.0661C25.9653 20.0587 26.0099 20.0524 26.0422 20.0479L26.0803 20.0427L26.0906 20.0413L26.0932 20.0409L26.0939 20.0408L26.094 20.0408L26.0941 20.0408L26.0941 20.0411L26.103 20.0394L26.103 20.0393L26.103 20.0393L26.1031 20.0393L26.1033 20.0393L26.1053 20.0389L26.1144 20.0373C26.1225 20.0359 26.1347 20.0338 26.15 20.0316C26.1808 20.027 26.2237 20.0215 26.2718 20.0179C26.374 20.0102 26.4774 20.0127 26.5428 20.0345C26.6651 20.0751 26.7379 20.1426 26.8015 20.2373C26.8349 20.2872 26.8655 20.3442 26.8993 20.4113C26.9076 20.4278 26.9162 20.445 26.9251 20.4628C26.9511 20.5151 26.9797 20.5723 27.0109 20.6297C27.0814 20.7591 27.1422 20.9472 27.1863 21.1114C27.1912 21.1296 27.1958 21.1474 27.2002 21.1645C27.1576 21.1554 27.1108 21.1461 27.0613 21.1372C26.8506 21.0997 26.57 21.0675 26.3415 21.1103C26.3245 21.1135 26.3078 21.1166 26.2912 21.1196C26.062 21.1619 25.8697 21.1973 25.6484 21.3757C25.5268 21.4737 25.4233 21.6286 25.3546 21.7456C25.3189 21.8064 25.2899 21.8617 25.2698 21.9019C25.2597 21.922 25.2517 21.9385 25.2462 21.9501L25.2405 21.9625L24.7673 22.8005L24.7665 22.8016L24.7558 22.8176C24.7464 22.8317 24.7324 22.8522 24.7148 22.8777C24.6794 22.9287 24.6293 22.9994 24.5704 23.078C24.451 23.2375 24.3017 23.421 24.1689 23.5409C23.9522 23.7364 23.795 23.8255 23.5559 23.9611C23.5137 23.985 23.469 24.0103 23.421 24.038C23.2865 24.1153 23.1064 24.2054 22.9577 24.2772C22.8838 24.3128 22.8185 24.3435 22.7717 24.3653L22.7167 24.3907L22.7073 24.395L22.6963 24.398C22.6821 24.402 22.6612 24.4077 22.6351 24.4147C22.5828 24.4288 22.5096 24.4479 22.4262 24.4681C22.2575 24.5091 22.0532 24.5533 21.8947 24.5715C21.8249 24.5795 21.7606 24.5879 21.7004 24.5957C21.4103 24.6333 21.2149 24.6586 20.963 24.5777C20.7028 24.4942 20.4048 24.2427 20.2256 23.9546C20.137 23.8121 20.0846 23.6719 20.0749 23.5507C20.0656 23.4336 20.0956 23.3378 20.1701 23.2625C20.1907 23.2416 20.2049 23.2305 20.2136 23.2247C20.2143 23.2252 20.2151 23.2258 20.2159 23.2264C20.2306 23.237 20.2476 23.2524 20.2752 23.2777C20.2765 23.2789 20.2779 23.2802 20.2793 23.2814C20.3304 23.3284 20.4037 23.3957 20.5056 23.4493C20.6127 23.5056 20.7458 23.5443 20.9171 23.5443ZM20.2244 23.219C20.2244 23.2191 20.2237 23.2194 20.2224 23.2197L20.2244 23.219Z"
        fill="#6100FF" stroke="black" stroke-width="0.3" />
    <path
        d="M17.0489 16.5352L17.0709 16.5352L22.3098 12.9914L22.3098 12.9913L22.3101 12.9911L22.3113 12.9899L22.3164 12.9851L22.3366 12.9662C22.3541 12.9499 22.3796 12.9264 22.4107 12.8985C22.4733 12.8424 22.558 12.7688 22.6479 12.6975C22.7388 12.6255 22.8308 12.5594 22.9084 12.5157C22.9474 12.4938 22.9779 12.4803 22.9994 12.4738C23.0045 12.4723 23.0084 12.4713 23.0111 12.4708C23.1467 12.5172 23.2287 12.5704 23.2938 12.6372C23.3648 12.71 23.4235 12.806 23.5045 12.9548C23.654 13.2293 23.7168 13.5551 23.5794 13.7978C23.4912 13.9536 23.3456 14.0165 23.1433 14.0449C23.0481 14.0582 22.9483 14.0628 22.8418 14.0677C22.8337 14.068 22.8256 14.0684 22.8175 14.0688C22.7056 14.074 22.5851 14.0803 22.4733 14.1012C22.4563 14.1044 22.4396 14.1075 22.423 14.1105C22.1938 14.1528 22.0015 14.1882 21.7802 14.3666C21.6586 14.4646 21.5551 14.6195 21.4864 14.7365C21.4507 14.7973 21.4217 14.8526 21.4015 14.8928C21.3914 14.9129 21.3835 14.9294 21.378 14.941L21.3723 14.9534L20.8991 15.7914L20.8983 15.7925L20.8876 15.8085C20.8781 15.8226 20.8642 15.8431 20.8465 15.8686C20.8112 15.9196 20.7611 15.9903 20.7022 16.069C20.5828 16.2284 20.4335 16.4119 20.3007 16.5318C20.0839 16.7273 19.9268 16.8164 19.6877 16.952C19.6455 16.9759 19.6008 17.0012 19.5528 17.0289C19.4183 17.1062 19.2382 17.1963 19.0895 17.2681C19.0156 17.3037 18.9503 17.3344 18.9035 17.3562L18.8485 17.3816L18.8391 17.3859L18.8281 17.389C18.8139 17.3929 18.793 17.3986 18.7669 17.4056C18.7146 17.4197 18.6414 17.4388 18.558 17.4591C18.3893 17.5 18.185 17.5442 18.0265 17.5624C17.982 17.5676 17.9383 17.5728 17.8954 17.578C17.5488 17.6196 17.2492 17.6555 16.9781 17.5685C16.7311 17.4893 16.4812 17.2257 16.3461 16.9137C16.2086 16.5964 16.22 16.3077 16.3755 16.1506C16.3791 16.147 16.3824 16.1437 16.3855 16.1408C16.3924 16.1501 16.3999 16.1609 16.4091 16.1739C16.4133 16.1798 16.4178 16.1863 16.4227 16.1932C16.4668 16.2557 16.5317 16.3441 16.6331 16.4146C16.7377 16.4873 16.8724 16.5352 17.0489 16.5352Z"
        fill="#6100FF" stroke="black" stroke-width="0.3" />
    <path
        d="M26.527 19.8154C26.4527 19.8215 26.3617 19.8293 26.2632 19.8385C26.0115 19.8621 25.7033 19.8956 25.4956 19.9345C25.3279 19.966 25.1816 20.0697 25.0857 20.1519C25.0359 20.1947 24.9951 20.2356 24.9667 20.2659C24.9525 20.2811 24.9412 20.2938 24.9333 20.303L24.9291 20.3078L24.4299 20.7417L24.4104 20.7587L24.3977 20.7812L23.9214 21.6247L23.9207 21.6258L23.9099 21.6418C23.9005 21.6559 23.8865 21.6764 23.8689 21.7019C23.8335 21.7529 23.7834 21.8236 23.7246 21.9022C23.6052 22.0617 23.4559 22.2452 23.323 22.3651C23.2126 22.4647 23.1228 22.569 23.0429 22.6618C23.0192 22.6892 22.9964 22.7157 22.9742 22.7407C22.8746 22.8531 22.7776 22.9487 22.6407 23.0274C22.5248 23.0941 22.3457 23.1414 22.1825 23.1716C22.1034 23.1863 22.0324 23.1962 21.9812 23.2024C21.9557 23.2055 21.9352 23.2077 21.9214 23.2091L21.9057 23.2106L21.9019 23.2109L21.9011 23.211L21.901 23.211L21.901 23.211L21.9009 23.211L21.9009 23.211L21.8863 23.2122L21.8721 23.2162L21.8721 23.2162L21.8721 23.2162L21.872 23.2162L21.8718 23.2163L21.8708 23.2166L21.8667 23.2177L21.8505 23.2223C21.8362 23.2262 21.8154 23.2319 21.7892 23.2389C21.737 23.253 21.6638 23.2721 21.5803 23.2924C21.4116 23.3333 21.2073 23.3775 21.0488 23.3957C20.979 23.4038 20.9147 23.4121 20.8545 23.4199C20.5644 23.4575 20.369 23.4828 20.1171 23.4019C20.007 23.3666 19.9038 23.2812 19.809 23.1544C19.7149 23.0286 19.6372 22.8728 19.5753 22.7167C19.52 22.5771 19.4789 22.4414 19.4504 22.334C19.5889 22.3521 19.7915 22.3685 20.0713 22.3685L20.0932 22.3685L20.1142 22.3622C20.1529 22.3506 20.2276 22.3415 20.3371 22.3353C20.4245 22.3303 20.5234 22.3276 20.6275 22.3248C20.6491 22.3242 20.6709 22.3236 20.6929 22.323C20.819 22.3195 20.9499 22.315 21.0659 22.3052C21.1782 22.2957 21.2919 22.2801 21.3764 22.2485C21.665 22.1404 21.8496 22.0046 22.0114 21.8566C22.0734 21.7999 22.1278 21.746 22.1815 21.6927C22.2733 21.6017 22.3631 21.5126 22.4857 21.4148C22.7622 21.1939 22.9922 20.9103 23.2056 20.6471C23.2436 20.6002 23.2811 20.5539 23.3183 20.5088C23.4654 20.3301 23.5779 20.148 23.6673 19.9951C23.6894 19.9574 23.7096 19.9224 23.7282 19.8902C23.7888 19.7851 23.8325 19.7091 23.8719 19.6601C23.8999 19.6252 23.926 19.5911 23.9521 19.5571C23.9905 19.507 24.0289 19.4568 24.0737 19.4036C24.1459 19.3179 24.2127 19.2523 24.2733 19.2165C24.3126 19.1933 24.3558 19.1658 24.3984 19.1385L24.4044 19.1347C24.4499 19.1056 24.4959 19.0763 24.5421 19.0489C24.6381 18.9919 24.7196 18.9523 24.7808 18.9393C24.8542 18.9236 24.9697 18.9052 25.07 18.8903C25.1194 18.8829 25.164 18.8766 25.1963 18.8721L25.2344 18.8669L25.2447 18.8655L25.2473 18.8651L25.248 18.865L25.2481 18.865L25.2482 18.865L25.2482 18.8653L26.527 19.8154ZM26.527 19.8154C26.525 19.8098 26.5229 19.8042 26.5208 19.7985C26.4775 19.6819 26.4159 19.5327 26.3412 19.3955C26.198 19.1326 25.982 18.9534 25.6969 18.8587C25.6315 18.8369 25.5281 18.8344 25.4259 18.8421C25.3778 18.8457 25.335 18.8512 25.3042 18.8558C25.2888 18.8581 25.2766 18.8601 25.2685 18.8615L25.2595 18.8631L25.2574 18.8635L25.2572 18.8635L25.2572 18.8636L25.2571 18.8636L25.2571 18.8636L26.527 19.8154ZM23.9241 21.6206C23.9241 21.6206 23.9241 21.6206 23.9241 21.6206L23.9241 21.6206Z"
        fill="#CB1111" stroke="black" stroke-width="0.3" />
    <path
        d="M19.1792 20.6038L19.2011 20.6038L19.2221 20.5975C19.3106 20.5711 19.4768 20.5361 19.6674 20.4961C19.7089 20.4874 19.7515 20.4784 19.7948 20.4692C20.0265 20.4201 20.2782 20.3645 20.4183 20.312C20.6279 20.2336 20.81 20.2623 21.0168 20.2949C21.0304 20.297 21.0441 20.2992 21.058 20.3013C21.2761 20.3352 21.534 20.3663 21.7855 20.1655C21.97 20.0181 22.0551 19.8455 22.1236 19.688C22.1326 19.6671 22.1414 19.6466 22.15 19.6265C22.2072 19.4924 22.2573 19.3751 22.3525 19.2595C22.4804 19.1041 22.5949 19.0159 22.6943 18.9472C22.7102 18.9362 22.7269 18.925 22.744 18.9135C22.8248 18.8594 22.9151 18.799 22.9799 18.7183C23.0351 18.6494 23.1359 18.5407 23.2444 18.4365C23.3552 18.3302 23.4614 18.2406 23.5285 18.201C23.6858 18.1082 23.9716 17.912 24.1109 17.7727C24.2221 17.6614 24.3139 17.4943 24.3747 17.3678C24.4062 17.3023 24.4316 17.243 24.4491 17.2C24.4579 17.1785 24.4648 17.161 24.4695 17.1486L24.4717 17.1428L24.4768 17.1345C24.4845 17.1219 24.496 17.1038 24.5104 17.0821C24.5394 17.0383 24.5792 16.9818 24.6236 16.928C24.6693 16.8727 24.7142 16.8273 24.7529 16.8001C24.7694 16.7885 24.78 16.7834 24.7856 16.7812C24.8266 16.7987 24.8901 16.8474 24.9722 16.9396C25.0565 17.0342 25.1453 17.1572 25.232 17.2902C25.3886 17.5307 25.5297 17.7907 25.6157 17.9493C25.6248 17.966 25.6332 17.9815 25.641 17.9958C25.6989 18.1022 25.7114 18.268 25.7012 18.4294C25.6973 18.4901 25.6906 18.5458 25.6838 18.5909C25.6236 18.5943 25.5445 18.5992 25.4551 18.6061C25.2571 18.6213 25.0038 18.6462 24.7954 18.6852C24.6277 18.7166 24.4814 18.8204 24.3856 18.9026C24.3357 18.9454 24.2949 18.9863 24.2665 19.0166C24.2523 19.0318 24.241 19.0445 24.2331 19.0537L24.2289 19.0585L23.7297 19.4924L23.7102 19.5094L23.6975 19.5319L23.2212 20.3754L23.2205 20.3765L23.2097 20.3925C23.2003 20.4066 23.1864 20.4271 23.1687 20.4526C23.1333 20.5036 23.0832 20.5743 23.0244 20.6529C22.905 20.8124 22.7557 20.9959 22.6228 21.1158C22.5124 21.2154 22.4226 21.3197 22.3427 21.4125C22.319 21.4399 22.2962 21.4664 22.274 21.4914C22.1744 21.6038 22.0774 21.6994 21.9406 21.7781C21.8246 21.8448 21.6455 21.8921 21.4823 21.9223C21.4032 21.937 21.3322 21.9469 21.281 21.9531C21.2555 21.9562 21.2351 21.9584 21.2212 21.9598L21.2055 21.9613L21.2017 21.9616L21.2009 21.9617L21.2008 21.9617L21.2008 21.9617L21.2008 21.9617L21.2007 21.9617L21.1861 21.9629L21.1719 21.9669L21.1719 21.9669L21.1719 21.9669L21.1718 21.9669L21.1716 21.967L21.1706 21.9673L21.1665 21.9684L21.1503 21.973C21.136 21.9769 21.1152 21.9826 21.089 21.9896C21.0368 22.0037 20.9636 22.0228 20.8801 22.043C20.7114 22.084 20.5071 22.1282 20.3486 22.1464C20.2788 22.1545 20.2145 22.1628 20.1543 22.1706C19.8642 22.2082 19.6689 22.2335 19.4169 22.1526C19.3068 22.1173 19.2036 22.0318 19.1089 21.9051C19.0147 21.7793 18.937 21.6235 18.8751 21.4674C18.8136 21.3121 18.7696 21.1616 18.7411 21.0496C18.7268 20.9937 18.7165 20.9478 18.7098 20.9162C18.708 20.9072 18.7063 20.8994 18.705 20.8928C18.7064 20.8866 18.7084 20.8789 18.7111 20.8701C18.7199 20.8413 18.7361 20.8028 18.7648 20.7645C18.8173 20.6948 18.928 20.6038 19.1792 20.6038Z"
        fill="#1FC41C" stroke="black" stroke-width="0.3" />
    <path
        d="M20.069 14.8711L19.9651 14.7625L19.9586 14.7695L19.9586 14.7695L19.9586 14.7696L19.9584 14.7698L19.9574 14.7708L19.9534 14.7752L19.9374 14.7923C19.9233 14.8073 19.9026 14.8292 19.8766 14.8563C19.8244 14.9105 19.7509 14.9855 19.6655 15.0685C19.4928 15.2363 19.2783 15.43 19.0954 15.553C18.7618 15.7773 18.5525 15.8663 18.1668 16.0164C17.7856 16.1648 17.5647 16.226 17.1614 16.304C17.052 16.3252 16.9524 16.3566 16.8633 16.3863C16.8445 16.3926 16.8264 16.3987 16.8089 16.4046C16.7404 16.4278 16.6803 16.4481 16.6203 16.4637C16.4785 16.5004 16.3631 16.5034 16.231 16.4303C16.0572 16.3341 15.8688 16.1928 15.7309 16.0304C15.5912 15.866 15.519 15.6992 15.5342 15.5455C15.5434 15.4523 15.5714 15.4039 15.6011 15.3749C15.6329 15.3438 15.6836 15.3185 15.7664 15.3029C15.8497 15.2872 15.9527 15.2836 16.0774 15.286C16.1479 15.2874 16.217 15.2904 16.2901 15.2935C16.3513 15.2961 16.4154 15.2989 16.4857 15.3009C16.8589 15.3118 17.3055 15.2986 17.706 15.0714C18.0246 14.8906 18.3618 14.6563 18.685 14.4239C18.7737 14.3601 18.8612 14.2966 18.9471 14.2342C19.1768 14.0675 19.3949 13.9092 19.5939 13.7765C20.3008 13.305 20.7018 12.7475 21.0685 12.2379C21.1332 12.148 21.1968 12.0595 21.2609 11.9733C21.5815 11.5416 21.9159 11.1584 22.454 10.8743C22.5721 10.812 22.663 10.8254 22.7436 10.8786C22.8351 10.939 22.9242 11.0598 22.9941 11.2307C23.1342 11.5735 23.1647 12.0368 23.0532 12.3489C22.9564 12.6198 22.7794 12.74 22.5356 12.8468C22.4791 12.8716 22.4171 12.896 22.3514 12.9219C22.1407 13.005 21.8922 13.103 21.6669 13.2739C21.3125 13.5429 20.8863 13.9159 20.5509 14.2197C20.3827 14.3719 20.2364 14.5076 20.1322 14.6052C20.0801 14.654 20.0384 14.6933 20.0098 14.7204L19.9769 14.7517L19.9683 14.7598L19.9661 14.7619L19.9655 14.7625L19.9654 14.7626L19.9653 14.7627L20.069 14.8711Z"
        fill="#CB1111" stroke="black" stroke-width="0.3" />
    <path
        d="M14.017 11.5205C14.017 11.5205 13.93 11.5493 13.6978 11.4913C13.4468 11.4285 13.6108 11.4624 13.2628 11.3757C12.9969 11.3095 13.0304 11.2593 13.1758 11.0565C13.3555 10.8058 13.3996 10.6752 13.524 10.3021C13.582 10.128 14.139 10.2731 14.4235 10.7084C14.6343 11.0309 14.4813 11.3181 14.2782 11.4336C14.1401 11.5121 14.017 11.5205 14.017 11.5205Z"
        fill="black" />
    <path
        d="M16.2377 8.54391C16.2377 8.54391 16.1507 8.57277 15.9185 8.51473C15.6675 8.45196 15.8315 8.48587 15.4835 8.39919C15.2176 8.33295 15.2511 8.28273 15.3965 8.07998C15.5762 7.82928 15.6203 7.69867 15.7447 7.32557C15.8027 7.15147 16.3597 7.29656 16.6442 7.73183C16.855 8.0543 16.702 8.34152 16.4989 8.457C16.3608 8.53552 16.2377 8.54391 16.2377 8.54391Z"
        fill="black" />
    <path
        d="M13.1894 12.7666C13.1894 12.7666 13.1165 12.7908 12.922 12.7422C12.7116 12.6896 12.849 12.718 12.5574 12.6454C12.3347 12.5899 12.3627 12.5478 12.4845 12.3779C12.6351 12.1678 12.6721 12.0584 12.7763 11.7457C12.8249 11.5999 13.2916 11.7214 13.53 12.0862C13.7067 12.3564 13.5785 12.597 13.4083 12.6938C13.2925 12.7596 13.1894 12.7666 13.1894 12.7666Z"
        fill="black" />
    <path
        d="M15.3222 10.2108C15.3222 10.2108 15.2262 10.2426 14.9703 10.1786C14.6936 10.1094 14.8744 10.1468 14.4909 10.0512C14.1978 9.97823 14.2347 9.92288 14.3949 9.69941C14.593 9.42308 14.6416 9.27912 14.7787 8.86789C14.8427 8.67599 15.4566 8.8359 15.7702 9.31567C16.0025 9.67109 15.8339 9.98767 15.61 10.115C15.4578 10.2015 15.3222 10.2108 15.3222 10.2108Z"
        fill="black" />
    <path
        d="M15.5261 5.20192C15.5209 5.22149 15.1382 5.31105 14.7845 5.82179L13.6042 7.22224C13.1301 7.7656 12.6973 8.39772 12.6987 8.97416C12.7015 9.74693 14.0548 9.43624 14.8915 9.07663L16.3829 7.67633L16.9389 7.88677C17.8359 8.23795 18.1153 8.26077 18.8467 8.29532L19.5037 8.27353C20.0211 8.24019 20.2095 7.59172 20.1855 7.53634L19.7057 6.20081C19.1739 5.86794 19.0637 5.99738 18.4426 5.83346L17.1258 5.44843L15.5261 5.20192Z"
        fill="#FAB58B" stroke="black" stroke-width="0.3" stroke-miterlimit="10" />
    <path
        d="M12.8376 8.61345C12.8376 8.61345 12.8387 8.45839 12.9246 8.26524C13.0243 8.04117 13.068 7.9395 13.2147 7.74292C13.4211 7.46616 13.3017 7.6268 13.5048 7.36572C13.8072 6.97714 13.9212 7.29936 13.9981 7.68505C14.1015 8.20404 14.0794 8.36169 13.6506 8.67179C13.3385 8.89754 13.0799 9.21312 12.8961 8.87458C12.8203 8.73494 12.8376 8.61345 12.8376 8.61345Z"
        fill="black" />
    <path
        d="M17.7921 1.29373C18.2684 1.61401 18.6776 1.931 18.9539 2.18327C19.0645 2.28425 19.1508 2.37206 19.211 2.44348C19.1221 2.41465 19.0083 2.36791 18.873 2.30355C18.5352 2.14278 18.0872 1.8834 17.6109 1.56311C17.1347 1.24283 16.7255 0.925839 16.4491 0.673575C16.3385 0.572589 16.2523 0.484778 16.192 0.413359C16.2809 0.442195 16.3948 0.488929 16.53 0.553289C16.8679 0.714063 17.3158 0.973443 17.7921 1.29373ZM19.3017 2.57854C19.3017 2.57851 19.3015 2.57784 19.3012 2.5766C19.3016 2.57794 19.3018 2.57856 19.3017 2.57854ZM19.3683 2.47683C19.3696 2.47659 19.3703 2.47653 19.3703 2.47656C19.3703 2.47659 19.3697 2.47671 19.3683 2.47683ZM16.1013 0.278305C16.1014 0.278331 16.1016 0.279004 16.1018 0.280245C16.1014 0.2789 16.1013 0.278279 16.1013 0.278305ZM16.0347 0.380015C16.0335 0.380251 16.0328 0.380308 16.0327 0.380278C16.0327 0.380247 16.0333 0.380129 16.0347 0.380015Z"
        fill="#D9D9D9" stroke="black" stroke-width="0.3" />
</svg>